<svg version="1.1" id="Layer_1" xmlns="http://www.w3.org/2000/svg" xmlns:xlink="http://www.w3.org/1999/xlink" x="0px" y="0px"
	 width="100%" viewBox="0 0 2000 2000" enable-background="new 0 0 2000 2000" xml:space="preserve">
<path fill="#000000" opacity="1.000000" stroke="none" 
	d="
M1318.000000,2001.000000 
	C878.666687,2001.000000 439.833344,2001.000000 1.000000,2001.000000 
	C1.000000,1334.333374 1.000000,667.666687 1.000000,1.000000 
	C667.666687,1.000000 1334.333374,1.000000 2001.000000,1.000000 
	C2001.000000,667.666687 2001.000000,1334.333374 2001.000000,2001.000000 
	C1773.500000,2001.000000 1546.000000,2001.000000 1318.000000,2001.000000 
M627.167847,1003.537415 
	C627.432800,1003.737671 627.697693,1003.937927 627.999634,1004.905029 
	C629.656738,1009.707947 631.043823,1014.625549 633.024597,1019.291016 
	C637.827454,1030.603882 642.906860,1041.799194 647.999817,1053.762329 
	C652.768005,1062.791748 656.836182,1072.285767 662.453491,1080.751709 
	C673.359253,1097.187988 684.515625,1113.537231 696.746094,1128.990112 
	C706.558105,1141.387329 718.110168,1152.407227 729.200745,1164.637085 
	C732.159851,1167.288086 735.198975,1169.855591 738.064880,1172.603882 
	C753.825439,1187.717773 771.323730,1200.565796 789.760864,1212.163208 
	C809.213684,1224.399414 829.468750,1235.171387 850.771118,1243.803955 
	C881.880615,1256.410767 914.021118,1265.376343 947.464355,1268.970825 
	C964.204895,1270.770264 981.023438,1272.212891 997.841797,1272.787476 
	C1008.698914,1273.158325 1019.639832,1271.892334 1030.506714,1270.942139 
	C1042.978394,1269.851807 1055.547485,1269.048950 1067.828857,1266.787598 
	C1091.320679,1262.462402 1114.476562,1256.570801 1136.812622,1247.913696 
	C1160.876465,1238.586792 1183.948608,1227.292480 1205.965942,1213.728638 
	C1225.591797,1201.637939 1243.791992,1187.702881 1260.888916,1172.387817 
	C1272.036987,1162.401733 1282.324097,1151.430420 1292.688354,1140.605225 
	C1296.608154,1136.511108 1299.661011,1131.587036 1303.695557,1126.723145 
	C1310.135742,1118.102661 1316.805786,1109.643066 1322.968262,1100.828491 
	C1335.937500,1082.277710 1347.284912,1062.753418 1355.972046,1041.822998 
	C1361.963013,1027.388428 1368.304443,1012.981567 1372.733887,998.041992 
	C1381.491699,968.504089 1388.098267,938.441162 1389.067383,907.430420 
	C1389.131104,905.394409 1389.548584,903.369446 1389.801636,901.339294 
	C1389.255005,901.249756 1388.708496,901.160156 1388.161865,901.070618 
	C1387.767334,902.333801 1387.149902,903.574341 1387.018799,904.864258 
	C1386.568115,909.299133 1386.752441,913.846924 1385.861084,918.180176 
	C1382.126709,936.332947 1378.757446,954.600342 1374.017334,972.497986 
	C1365.484619,1004.715454 1351.299927,1034.535400 1333.189697,1062.480591 
	C1319.886841,1083.007690 1304.817871,1102.158447 1287.359375,1120.196777 
	C1282.253418,1124.928345 1277.076416,1129.586182 1272.054688,1134.405518 
	C1257.113770,1148.743774 1240.515137,1160.954956 1223.203857,1172.194214 
	C1203.106201,1185.242554 1182.001343,1196.403320 1159.663208,1205.203613 
	C1136.516235,1214.322632 1112.965942,1222.001709 1088.492432,1226.755615 
	C1067.055298,1230.919556 1045.471069,1233.788330 1023.629944,1233.927368 
	C1008.245728,1234.025391 992.830750,1233.781128 977.477905,1232.871948 
	C965.502380,1232.162842 953.473633,1230.871460 941.694702,1228.642944 
	C918.898376,1224.329834 896.244751,1219.163086 874.690247,1210.283813 
	C859.918823,1204.198608 845.251709,1197.838501 830.720093,1191.202515 
	C824.240417,1188.243530 818.208740,1184.303711 811.973755,1180.809082 
	C823.590027,1183.513428 834.922729,1186.767822 846.358765,1189.606323 
	C870.789856,1195.669922 895.608765,1199.142334 920.798523,1198.904785 
	C936.865845,1198.753174 952.973328,1198.235352 968.971619,1196.837891 
	C982.048462,1195.695923 995.089539,1193.500854 1007.971252,1190.903564 
	C1034.226685,1185.609985 1059.523560,1176.975586 1083.410400,1164.999390 
	C1100.011475,1156.676392 1115.864258,1146.750122 1131.565308,1136.775269 
	C1146.363770,1127.373779 1159.908569,1116.225952 1172.053101,1103.482910 
	C1179.269409,1095.910767 1187.072021,1088.814209 1193.608887,1080.696777 
	C1204.015991,1067.773560 1213.600220,1054.187012 1223.462158,1040.829102 
	C1223.878540,1040.265137 1223.588379,1039.179565 1223.682373,1037.142944 
	C1216.315430,1045.810547 1209.973389,1053.788330 1203.089233,1061.266968 
	C1187.559937,1078.137573 1169.886108,1092.643555 1151.201172,1105.798340 
	C1123.387817,1125.379639 1093.241333,1140.805054 1060.910400,1151.253906 
	C1041.733765,1157.451538 1021.924805,1162.020264 1002.112549,1165.822510 
	C985.512817,1169.008301 968.539001,1170.966064 951.651855,1171.736450 
	C933.759888,1172.552612 915.760132,1171.654053 897.836365,1170.855469 
	C888.488220,1170.439087 879.159180,1168.889771 869.899414,1167.375732 
	C858.886169,1165.575073 847.956543,1163.262939 836.216248,1161.006104 
	C831.803040,1159.711182 827.313721,1158.629517 822.989929,1157.084473 
	C805.022583,1150.663696 787.048279,1144.253662 769.199707,1137.513550 
	C762.934814,1135.147583 757.023499,1131.845093 750.962646,1128.975952 
	C767.671204,1132.431885 784.101013,1136.402588 800.737366,1139.099365 
	C815.362366,1141.470215 830.193176,1143.330566 844.979614,1143.740479 
	C860.841919,1144.180176 876.810303,1143.244263 892.636292,1141.832031 
	C907.358765,1140.518188 922.148804,1138.657837 936.554260,1135.446533 
	C952.354065,1131.924316 967.888672,1127.007446 983.283020,1121.923706 
	C1002.543823,1115.562988 1020.688782,1106.489380 1037.726807,1095.581055 
	C1051.292969,1086.895630 1064.653442,1077.648804 1076.940918,1067.272583 
	C1089.806396,1056.408325 1101.360229,1043.976685 1113.306030,1032.048340 
	C1115.972412,1029.385864 1117.881836,1025.965332 1120.139771,1022.893921 
	C1119.763184,1022.543152 1119.386719,1022.192383 1119.010132,1021.841553 
	C1117.895508,1022.832703 1116.756592,1023.797913 1115.670532,1024.819458 
	C1109.503418,1030.619629 1103.837769,1037.090576 1097.090942,1042.108887 
	C1081.914062,1053.397583 1066.456421,1064.354126 1050.642456,1074.728271 
	C1033.172485,1086.188599 1013.767700,1094.060059 994.094299,1100.575317 
	C975.603455,1106.698975 956.500610,1111.333618 937.358521,1115.022095 
	C920.913818,1118.190674 904.068665,1120.169556 887.336426,1120.717651 
	C868.984802,1121.318726 850.489014,1120.453125 832.187744,1118.783081 
	C815.858826,1117.292847 799.470154,1114.825928 783.544922,1110.979980 
	C765.853333,1106.707397 748.594604,1100.573486 731.277405,1094.856201 
	C725.002441,1092.784546 719.103027,1089.575439 713.032166,1086.885376 
	C714.110535,1086.141724 714.944336,1086.087402 715.700134,1086.304565 
	C741.837158,1093.813110 768.583008,1097.475220 795.692505,1097.850708 
	C809.911499,1098.047607 824.172668,1096.962646 838.375854,1095.924683 
	C848.048523,1095.217773 857.750854,1094.089722 867.264282,1092.244385 
	C878.692261,1090.027588 889.938904,1086.870361 901.254761,1084.082520 
	C920.544739,1079.330078 938.781799,1071.940552 956.753418,1061.976074 
	C984.074341,1049.527466 1035.511719,1007.514771 1037.361206,995.518738 
	C1031.120850,1000.574890 1025.283569,1005.295105 1019.456360,1010.027710 
	C998.832642,1026.777100 975.568848,1038.921387 951.091553,1048.840332 
	C941.867004,1052.578491 932.338684,1055.567017 922.175171,1058.966553 
	C920.447876,1059.365845 918.720520,1059.765137 916.288391,1060.113159 
	C914.823547,1060.724609 913.358704,1061.336060 911.182800,1061.980591 
	C910.107239,1062.283325 909.031677,1062.586060 907.238281,1062.975708 
	C906.141418,1063.284302 905.044556,1063.593018 903.293823,1063.978271 
	C902.860168,1064.040405 902.426453,1064.102539 901.399658,1064.076904 
	C900.914856,1064.350098 900.430054,1064.623169 899.102234,1064.965454 
	C897.944092,1065.039795 896.779663,1065.060425 895.628845,1065.196533 
	C876.539246,1067.453979 857.502075,1070.483154 838.347717,1071.763916 
	C821.889343,1072.864624 805.297546,1071.974731 788.764771,1071.950684 
	C788.110535,1071.949707 787.439636,1071.868896 786.805237,1071.710205 
	C783.251953,1070.821777 779.744080,1069.706177 776.153320,1069.021606 
	C764.564697,1066.812256 752.829224,1065.248901 741.371826,1062.510010 
	C728.802795,1059.505127 716.479797,1055.471191 703.739075,1051.378296 
	C703.173950,1051.213135 702.608887,1051.048096 701.661316,1050.334717 
	C700.789551,1050.183472 699.917847,1050.032227 698.653870,1049.318970 
	C696.785889,1048.474609 694.917847,1047.630249 693.049866,1046.785889 
	C694.410583,1046.146851 695.597778,1045.996826 696.665649,1046.286499 
	C715.054260,1051.277588 733.965576,1052.743042 752.829773,1053.813965 
	C768.340393,1054.694702 783.908875,1054.305176 799.311523,1051.074829 
	C822.926636,1046.121948 844.261108,1037.075317 860.745361,1018.733887 
	C867.070068,1011.696594 871.027466,1003.535889 871.949158,993.071045 
	C871.825012,988.761658 872.311462,984.328369 871.467041,980.165039 
	C868.411682,965.100403 858.716797,954.396545 846.636047,946.019287 
	C837.917603,939.973633 828.603271,934.506287 818.923279,930.200562 
	C807.252869,925.009338 795.116089,920.605347 782.821045,917.136658 
	C760.708618,910.898315 738.199707,906.286499 715.290039,903.898499 
	C696.793274,901.970581 678.339966,899.466309 659.801208,898.149292 
	C644.424988,897.057007 628.952393,897.319336 613.522278,896.992126 
	C611.771118,896.954956 610.018494,896.987061 607.500061,896.987061 
	C609.395508,913.011963 610.518372,928.283997 613.162598,943.287964 
	C615.991882,959.341492 620.254822,975.142334 623.966187,991.852844 
	C625.027344,995.578186 626.088501,999.303467 627.167847,1003.537415 
M860.237244,613.108032 
	C860.837463,612.445923 861.437683,611.783752 862.647217,610.805359 
	C872.221863,603.910889 881.641235,596.787415 891.402222,590.167664 
	C914.637939,574.409424 939.538940,561.740723 966.219116,553.085815 
	C984.221863,547.245728 1002.598816,542.316162 1021.100464,538.337830 
	C1034.677246,535.418457 1048.689575,533.873962 1062.577881,533.231506 
	C1077.307251,532.550171 1092.156860,533.119141 1106.884888,534.138550 
	C1121.262939,535.133728 1135.744629,536.447693 1149.838989,539.306702 
	C1171.361694,543.672607 1192.600098,549.446350 1212.822510,558.357056 
	C1215.303223,559.450134 1217.952881,560.159729 1221.505005,561.385437 
	C1220.683838,559.688110 1220.580933,559.143188 1220.252441,558.860657 
	C1219.388062,558.117432 1218.445557,557.458801 1217.499268,556.817993 
	C1187.808228,536.710571 1155.929932,521.017090 1121.837402,509.938049 
	C1100.780151,503.095062 1079.421875,497.252594 1057.314331,494.987000 
	C1038.326294,493.041138 1019.305847,490.774170 1000.256714,490.268097 
	C985.477173,489.875458 970.556946,491.364441 955.835205,493.142578 
	C940.097473,495.043427 924.421814,497.795410 908.894348,501.019836 
	C886.387695,505.693604 864.870789,513.503357 843.704285,522.508789 
	C823.467285,531.118774 804.194336,541.406372 785.999084,553.619568 
	C774.022217,561.658875 762.427979,570.347107 751.228149,579.441528 
	C741.372925,587.444214 732.303589,596.414673 722.291504,605.245178 
	C705.783264,621.630615 690.744568,639.307312 677.416382,658.330872 
	C670.585510,668.080688 665.024231,678.720093 658.365417,689.247803 
	C658.205872,689.817749 658.046326,690.387634 657.351440,691.270752 
	C656.862793,692.167114 656.374146,693.063477 655.301941,694.339111 
	C643.276611,717.380188 632.804871,741.080811 625.532227,766.077759 
	C622.755188,775.622925 620.603394,785.350037 617.862061,795.596924 
	C611.907349,819.254211 609.432434,843.349182 608.200806,868.136658 
	C609.590454,867.497803 610.423218,867.297363 611.018188,866.807922 
	C612.937317,865.228760 614.679382,863.426575 616.647949,861.916565 
	C638.195496,845.388855 661.727112,832.543640 687.306641,823.329224 
	C720.101562,811.515747 753.981873,806.672119 788.680054,807.091309 
	C798.237000,807.206726 807.847168,807.838623 817.317261,809.101379 
	C832.431152,811.116699 847.611694,813.124084 862.474426,816.435120 
	C901.973938,825.234619 939.408875,839.963623 975.565002,857.953064 
	C987.495789,863.889221 998.946777,870.781677 1010.766785,876.950195 
	C1053.467651,899.234741 1097.160034,919.083679 1144.824585,928.297241 
	C1161.576294,931.535339 1178.512207,934.778870 1195.487427,935.669434 
	C1218.934326,936.899475 1242.460693,936.473511 1265.824097,932.179688 
	C1287.885498,928.124878 1309.174805,921.961792 1329.550781,912.705627 
	C1348.685913,904.013123 1365.731445,891.937134 1382.284180,879.148438 
	C1385.035889,877.022461 1387.466309,874.480591 1390.626221,871.601440 
	C1385.201538,870.994507 1380.846802,870.258850 1376.467896,870.061035 
	C1359.251709,869.283264 1342.022705,868.783142 1324.809082,867.959229 
	C1315.748169,867.525574 1306.650269,867.069946 1297.673584,865.852844 
	C1283.357788,863.911865 1269.060425,861.681763 1254.877808,858.940369 
	C1225.759277,853.312012 1197.296143,845.648071 1171.075073,831.098145 
	C1155.610352,822.516907 1142.526123,811.645325 1133.676025,795.279968 
	C1133.413574,794.339844 1133.305054,793.320129 1132.865845,792.471558 
	C1125.809326,778.839111 1127.791504,765.045105 1133.769165,752.074585 
	C1141.144165,736.071655 1153.599365,724.294556 1168.436401,714.748291 
	C1190.256836,700.708923 1214.255371,693.001709 1239.794434,691.330078 
	C1255.547607,690.298950 1271.674805,691.167786 1287.324463,693.376892 
	C1305.257080,695.908447 1322.843384,700.884583 1340.590088,704.752930 
	C1342.900024,705.256470 1345.269165,705.488037 1347.610840,705.845642 
	C1347.684692,705.384766 1347.758423,704.923889 1347.832275,704.463013 
	C1311.153320,685.191101 1272.047974,673.634033 1230.919312,669.074097 
	C1189.622437,664.495361 1148.768066,667.177429 1108.198486,676.714722 
	C1067.778198,686.216858 1030.963501,703.217957 996.857849,726.826721 
	C997.581970,725.059937 998.536560,723.646729 999.815369,722.649292 
	C1014.194824,711.434204 1028.624146,700.283081 1043.748901,688.987854 
	C1062.874512,677.609985 1082.890991,668.072327 1103.979248,660.995911 
	C1123.111206,654.576111 1142.476929,648.842529 1162.708618,646.946960 
	C1177.799316,645.533081 1192.888306,643.674561 1208.014893,643.205078 
	C1219.696533,642.842590 1231.486206,643.858521 1243.135376,645.117615 
	C1256.006714,646.508789 1268.897705,648.288147 1281.549561,650.981567 
	C1294.325928,653.701538 1306.811401,657.779236 1319.447266,661.176880 
	C1321.042603,661.605835 1322.776855,661.517456 1324.446777,661.668823 
	C1324.516113,661.209900 1324.585449,660.751038 1324.654785,660.292114 
	C1315.264404,655.588989 1306.045532,650.494934 1296.439941,646.282654 
	C1284.737549,641.151062 1272.990479,635.781433 1260.757568,632.279236 
	C1242.204956,626.967651 1223.322510,622.639221 1204.377808,618.925720 
	C1191.355835,616.373169 1178.015625,614.522095 1164.773926,614.208801 
	C1138.805420,613.594299 1112.828613,613.441956 1086.971802,617.794006 
	C1067.694092,621.038635 1048.688477,625.062744 1030.066406,630.930420 
	C1007.765381,637.957336 986.118713,646.687561 966.038025,658.666809 
	C952.561340,666.706421 939.915649,676.138855 926.283936,685.237000 
	C921.455811,689.049622 916.627686,692.862183 911.799561,696.674805 
	C911.554321,696.375977 911.309143,696.077209 911.063904,695.778381 
	C912.082214,694.531311 913.100464,693.284241 914.708557,691.741516 
	C919.431213,687.366577 923.992310,682.799622 928.912170,678.659058 
	C937.454834,671.469604 945.779175,663.893372 954.992493,657.657471 
	C969.324158,647.957092 984.323486,639.243042 999.765259,629.996521 
	C1026.794189,616.701294 1054.923462,606.759766 1084.496948,600.623535 
	C1106.203003,596.119812 1128.081177,593.651855 1150.141235,593.172363 
	C1163.019897,592.892517 1175.977905,593.883545 1188.823120,595.110291 
	C1201.549438,596.325684 1214.399292,597.624634 1226.798096,600.562683 
	C1244.466553,604.749329 1261.768799,610.477722 1279.242432,615.496094 
	C1280.329468,615.808289 1281.545166,615.672607 1283.864746,615.818481 
	C1282.442871,614.313599 1282.017822,613.550781 1281.372437,613.226379 
	C1263.601685,604.292419 1246.190918,594.510986 1227.941162,586.687988 
	C1187.113403,569.186523 1144.047729,560.583740 1099.829590,558.185120 
	C1084.458984,557.351257 1068.909790,557.899292 1053.555542,559.177002 
	C1035.739014,560.659668 1017.949524,563.070923 1000.322632,566.094788 
	C969.447998,571.391296 939.826294,581.214050 911.928955,595.307312 
	C893.369446,604.683350 875.908875,616.234619 857.440979,627.096069 
	C856.947205,627.692505 856.453369,628.288879 855.314026,629.000183 
	C854.505005,629.653259 853.695923,630.306335 852.187988,631.005981 
	C835.769409,645.310242 819.350769,659.614563 802.932190,673.918823 
	C819.094666,651.433838 837.621826,631.029419 859.591614,613.728333 
	C859.591614,613.728333 859.688904,613.509644 860.237244,613.108032 
z"/>
<path fill="#33A948" opacity="1.000000" stroke="none" 
	d="
M618.166687,794.994202 
	C620.603394,785.350037 622.755188,775.622925 625.532227,766.077759 
	C632.804871,741.080811 643.276611,717.380188 655.989441,694.105164 
	C659.992126,693.902527 663.307190,693.954285 666.622437,693.961243 
	C677.108215,693.983154 687.593994,693.992981 698.079773,693.998718 
	C708.732117,694.004517 719.384399,694.000000 730.036743,694.000000 
	C740.522644,694.000000 751.070251,694.708374 761.476990,693.800598 
	C771.873596,692.893738 782.221680,697.234802 792.517029,693.588318 
	C792.662048,693.536865 792.846680,693.603821 793.012817,693.604553 
	C822.634216,693.737000 852.256592,694.051392 881.876587,693.903381 
	C892.626770,693.849731 903.371521,692.691467 914.118713,692.037170 
	C913.100464,693.284241 912.082214,694.531311 911.063904,695.778381 
	C911.309143,696.077209 911.554321,696.375977 911.799561,696.674805 
	C916.627686,692.862183 921.455811,689.049622 926.769775,685.409729 
	C928.778809,690.031067 932.441650,690.018250 936.222168,690.014587 
	C966.928528,689.984924 997.635132,690.063538 1028.340820,689.918396 
	C1031.798584,689.902039 1035.231567,688.530945 1038.715454,688.134277 
	C1040.101807,687.976379 1041.595337,688.759888 1043.040039,689.114807 
	C1028.624146,700.283081 1014.194824,711.434204 999.815369,722.649292 
	C998.536560,723.646729 997.581970,725.059937 996.857849,726.826721 
	C1030.963501,703.217957 1067.778198,686.216858 1108.198486,676.714722 
	C1148.768066,667.177429 1189.622437,664.495361 1230.919312,669.074097 
	C1272.047974,673.634033 1311.153320,685.191101 1347.832275,704.463013 
	C1347.758423,704.923889 1347.684692,705.384766 1347.610840,705.845642 
	C1345.269165,705.488037 1342.900024,705.256470 1340.590088,704.752930 
	C1322.843384,700.884583 1305.257080,695.908447 1287.324463,693.376892 
	C1271.674805,691.167786 1255.547607,690.298950 1239.794434,691.330078 
	C1214.255371,693.001709 1190.256836,700.708923 1168.436401,714.748291 
	C1153.599365,724.294556 1141.144165,736.071655 1133.769165,752.074585 
	C1127.791504,765.045105 1125.809326,778.839111 1132.865845,792.471558 
	C1133.305054,793.320129 1133.413574,794.339844 1133.341309,795.602295 
	C1128.360474,795.616394 1123.714355,795.040100 1119.067993,795.038757 
	C952.100891,794.990662 785.133789,794.996155 618.166687,794.994202 
M992.759338,730.154480 
	C993.046509,730.306335 993.333618,730.458191 993.620789,730.610046 
	C993.683472,730.351318 993.746155,730.092590 993.808838,729.833862 
	C993.586670,729.785095 993.364502,729.736328 992.759338,730.154480 
z"/>
<path fill="#30A246" opacity="1.000000" stroke="none" 
	d="
M618.014404,795.295532 
	C785.133789,794.996155 952.100891,794.990662 1119.067993,795.038757 
	C1123.714355,795.040100 1128.360474,795.616394 1133.420044,795.959412 
	C1142.526123,811.645325 1155.610352,822.516907 1171.075073,831.098145 
	C1197.296143,845.648071 1225.759277,853.312012 1254.877808,858.940369 
	C1269.060425,861.681763 1283.357788,863.911865 1297.673584,865.852844 
	C1306.650269,867.069946 1315.748169,867.525574 1324.809082,867.959229 
	C1342.022705,868.783142 1359.251709,869.283264 1376.467896,870.061035 
	C1380.846802,870.258850 1385.201538,870.994507 1390.626221,871.601440 
	C1387.466309,874.480591 1385.035889,877.022461 1382.284180,879.148438 
	C1365.731445,891.937134 1348.685913,904.013123 1329.550781,912.705627 
	C1309.174805,921.961792 1287.885498,928.124878 1265.824097,932.179688 
	C1242.460693,936.473511 1218.934326,936.899475 1195.487427,935.669434 
	C1178.512207,934.778870 1161.576294,931.535339 1144.824585,928.297241 
	C1097.160034,919.083679 1053.467651,899.234741 1010.766785,876.950195 
	C998.946777,870.781677 987.495789,863.889221 975.565002,857.953064 
	C939.408875,839.963623 901.973938,825.234619 862.474426,816.435120 
	C847.611694,813.124084 832.431152,811.116699 817.317261,809.101379 
	C807.847168,807.838623 798.237000,807.206726 788.680054,807.091309 
	C753.981873,806.672119 720.101562,811.515747 687.306641,823.329224 
	C661.727112,832.543640 638.195496,845.388855 616.647949,861.916565 
	C614.679382,863.426575 612.937317,865.228760 611.018188,866.807922 
	C610.423218,867.297363 609.590454,867.497803 608.200806,868.136658 
	C609.432434,843.349182 611.907349,819.254211 618.014404,795.295532 
z"/>
<path fill="#1D5887" opacity="1.000000" stroke="none" 
	d="
M836.990662,1161.172241 
	C847.956543,1163.262939 858.886169,1165.575073 869.899414,1167.375732 
	C879.159180,1168.889771 888.488220,1170.439087 897.836365,1170.855469 
	C915.760132,1171.654053 933.759888,1172.552612 951.651855,1171.736450 
	C968.539001,1170.966064 985.512817,1169.008301 1002.112549,1165.822510 
	C1021.924805,1162.020264 1041.733765,1157.451538 1060.910400,1151.253906 
	C1093.241333,1140.805054 1123.387817,1125.379639 1151.201172,1105.798340 
	C1169.886108,1092.643555 1187.559937,1078.137573 1203.089233,1061.266968 
	C1209.973389,1053.788330 1216.315430,1045.810547 1223.682373,1037.142944 
	C1223.588379,1039.179565 1223.878540,1040.265137 1223.462158,1040.829102 
	C1213.600220,1054.187012 1204.015991,1067.773560 1193.608887,1080.696777 
	C1187.072021,1088.814209 1179.269409,1095.910767 1172.053101,1103.482910 
	C1159.908569,1116.225952 1146.363770,1127.373779 1131.565308,1136.775269 
	C1115.864258,1146.750122 1100.011475,1156.676392 1083.410400,1164.999390 
	C1059.523560,1176.975586 1034.226685,1185.609985 1007.971252,1190.903564 
	C995.089539,1193.500854 982.048462,1195.695923 968.971619,1196.837891 
	C952.973328,1198.235352 936.865845,1198.753174 920.798523,1198.904785 
	C895.608765,1199.142334 870.789856,1195.669922 846.358765,1189.606323 
	C834.922729,1186.767822 823.590027,1183.513428 811.973755,1180.809082 
	C818.208740,1184.303711 824.240417,1188.243530 830.720093,1191.202515 
	C845.251709,1197.838501 859.918823,1204.198608 874.690247,1210.283813 
	C896.244751,1219.163086 918.898376,1224.329834 941.694702,1228.642944 
	C953.473633,1230.871460 965.502380,1232.162842 977.477905,1232.871948 
	C992.830750,1233.781128 1008.245728,1234.025391 1023.629944,1233.927368 
	C1045.471069,1233.788330 1067.055298,1230.919556 1088.492432,1226.755615 
	C1112.965942,1222.001709 1136.516235,1214.322632 1159.663208,1205.203613 
	C1182.001343,1196.403320 1203.106201,1185.242554 1223.203857,1172.194214 
	C1240.515137,1160.954956 1257.113770,1148.743774 1272.054688,1134.405518 
	C1277.076416,1129.586182 1282.253418,1124.928345 1287.602539,1120.402466 
	C1286.386475,1126.560303 1286.613281,1126.883057 1292.618408,1126.981323 
	C1296.114624,1127.038696 1299.612061,1127.023682 1303.108887,1127.041260 
	C1299.661011,1131.587036 1296.608154,1136.511108 1292.688354,1140.605225 
	C1282.324097,1151.430420 1272.036987,1162.401733 1260.888916,1172.387817 
	C1243.791992,1187.702881 1225.591797,1201.637939 1205.965942,1213.728638 
	C1183.948608,1227.292480 1160.876465,1238.586792 1136.812622,1247.913696 
	C1114.476562,1256.570801 1091.320679,1262.462402 1067.828857,1266.787598 
	C1055.547485,1269.048950 1042.978394,1269.851807 1030.506714,1270.942139 
	C1019.639832,1271.892334 1008.698914,1273.158325 997.841797,1272.787476 
	C981.023438,1272.212891 964.204895,1270.770264 947.464355,1268.970825 
	C914.021118,1265.376343 881.880615,1256.410767 850.771118,1243.803955 
	C829.468750,1235.171387 809.213684,1224.399414 789.760864,1212.163208 
	C771.323730,1200.565796 753.825439,1187.717773 738.064880,1172.603882 
	C735.198975,1169.855591 732.159851,1167.288086 729.440918,1164.381592 
	C734.479614,1164.083008 739.278076,1164.005127 744.076599,1164.002930 
	C772.618591,1163.989746 801.161011,1164.062378 829.701660,1163.870117 
	C832.137268,1163.853638 834.561279,1162.112305 836.990662,1161.172241 
z"/>
<path fill="#37B149" opacity="1.000000" stroke="none" 
	d="
M722.887207,604.957764 
	C732.303589,596.414673 741.372925,587.444214 751.228149,579.441528 
	C762.427979,570.347107 774.022217,561.658875 785.999084,553.619568 
	C804.194336,541.406372 823.467285,531.118774 843.704285,522.508789 
	C864.870789,513.503357 886.387695,505.693604 908.894348,501.019836 
	C924.421814,497.795410 940.097473,495.043427 955.835205,493.142578 
	C970.556946,491.364441 985.477173,489.875458 1000.256714,490.268097 
	C1019.305847,490.774170 1038.326294,493.041138 1057.314331,494.987000 
	C1079.421875,497.252594 1100.780151,503.095062 1121.837402,509.938049 
	C1155.929932,521.017090 1187.808228,536.710571 1217.499268,556.817993 
	C1218.445557,557.458801 1219.388062,558.117432 1220.252441,558.860657 
	C1220.580933,559.143188 1220.683838,559.688110 1221.505005,561.385437 
	C1217.952881,560.159729 1215.303223,559.450134 1212.822510,558.357056 
	C1192.600098,549.446350 1171.361694,543.672607 1149.838989,539.306702 
	C1135.744629,536.447693 1121.262939,535.133728 1106.884888,534.138550 
	C1092.156860,533.119141 1077.307251,532.550171 1062.577881,533.231506 
	C1048.689575,533.873962 1034.677246,535.418457 1021.100464,538.337830 
	C1002.598816,542.316162 984.221863,547.245728 966.219116,553.085815 
	C939.538940,561.740723 914.637939,574.409424 891.402222,590.167664 
	C881.641235,596.787415 872.221863,603.910889 862.313354,610.564697 
	C861.806824,605.777283 858.703186,605.032776 855.067993,605.032898 
	C814.459167,605.034424 773.850342,605.046021 733.241516,605.046692 
	C729.790100,605.046753 726.338623,604.988770 722.887207,604.957764 
z"/>
<path fill="#206199" opacity="1.000000" stroke="none" 
	d="
M623.892029,991.053467 
	C620.254822,975.142334 615.991882,959.341492 613.162598,943.287964 
	C610.518372,928.283997 609.395508,913.011963 607.500061,896.987061 
	C610.018494,896.987061 611.771118,896.954956 613.522278,896.992126 
	C628.952393,897.319336 644.424988,897.057007 659.801208,898.149292 
	C678.339966,899.466309 696.793274,901.970581 715.290039,903.898499 
	C738.199707,906.286499 760.708618,910.898315 782.821045,917.136658 
	C795.116089,920.605347 807.252869,925.009338 818.923279,930.200562 
	C828.603271,934.506287 837.917603,939.973633 846.636047,946.019287 
	C858.716797,954.396545 868.411682,965.100403 871.467041,980.165039 
	C872.311462,984.328369 871.825012,988.761658 871.576904,993.669312 
	C867.263184,997.587280 862.652222,998.067383 857.663818,998.061279 
	C785.039062,997.971802 712.414124,997.983398 639.789246,998.031494 
	C633.937012,998.035339 627.958069,998.806335 625.168640,991.782654 
	C625.027283,991.426758 624.330322,991.291504 623.892029,991.053467 
z"/>
<path fill="#35AD48" opacity="1.000000" stroke="none" 
	d="
M722.589355,605.101440 
	C726.338623,604.988770 729.790100,605.046753 733.241516,605.046692 
	C773.850342,605.046021 814.459167,605.034424 855.067993,605.032898 
	C858.703186,605.032776 861.806824,605.777283 862.008667,610.722900 
	C861.437683,611.783752 860.837463,612.445923 859.912903,613.301025 
	C859.588562,613.494019 859.452759,613.676514 859.452759,613.676514 
	C837.621826,631.029419 819.094666,651.433838 802.932190,673.918823 
	C819.350769,659.614563 835.769409,645.310242 852.846069,630.896606 
	C854.322693,630.153198 855.141113,629.519226 855.959534,628.885254 
	C856.453369,628.288879 856.947205,627.692505 858.074341,627.134399 
	C861.497864,627.448425 864.287720,627.960571 867.078247,627.964111 
	C908.281555,628.016113 949.484985,627.959778 990.687927,628.091736 
	C993.474060,628.100647 996.255981,629.407715 999.039795,630.111084 
	C984.323486,639.243042 969.324158,647.957092 954.992493,657.657471 
	C945.779175,663.893372 937.454834,671.469604 928.912170,678.659058 
	C923.992310,682.799622 919.431213,687.366577 914.413635,691.889343 
	C903.371521,692.691467 892.626770,693.849731 881.876587,693.903381 
	C852.256592,694.051392 822.634216,693.737000 793.012817,693.604553 
	C792.846680,693.603821 792.662048,693.536865 792.517029,693.588318 
	C782.221680,697.234802 771.873596,692.893738 761.476990,693.800598 
	C751.070251,694.708374 740.522644,694.000000 730.036743,694.000000 
	C719.384399,694.000000 708.732117,694.004517 698.079773,693.998718 
	C687.593994,693.992981 677.108215,693.983154 666.622437,693.961243 
	C663.307190,693.954285 659.992126,693.902527 656.281250,693.915527 
	C656.374146,693.063477 656.862793,692.167114 657.798828,691.006470 
	C658.460510,690.147278 658.674805,689.552307 658.889160,688.957397 
	C665.024231,678.720093 670.585510,668.080688 677.416382,658.330872 
	C690.744568,639.307312 705.783264,621.630615 722.589355,605.101440 
M791.794189,687.341431 
	C791.912354,687.470642 792.030518,687.599792 792.148743,687.728943 
	C792.076843,687.567627 792.004944,687.406311 791.794189,687.341431 
M800.262756,676.978516 
	C800.668762,676.795410 801.074768,676.612305 801.480774,676.429260 
	C801.107788,676.407043 800.734863,676.384827 800.262756,676.978516 
z"/>
<path fill="#1E5C8E" opacity="1.000000" stroke="none" 
	d="
M836.603455,1161.089111 
	C834.561279,1162.112305 832.137268,1163.853638 829.701660,1163.870117 
	C801.161011,1164.062378 772.618591,1163.989746 744.076599,1164.002930 
	C739.278076,1164.005127 734.479614,1164.083008 729.285522,1164.082153 
	C718.110168,1152.407227 706.558105,1141.387329 696.746094,1128.990112 
	C684.515625,1113.537231 673.359253,1097.187988 662.453491,1080.751709 
	C656.836182,1072.285767 652.768005,1062.791748 648.362122,1053.455078 
	C665.683533,1053.394287 682.642395,1053.692139 699.602356,1053.797852 
	C701.080750,1053.807129 702.567017,1052.552979 704.049561,1051.885620 
	C716.479797,1055.471191 728.802795,1059.505127 741.371826,1062.510010 
	C752.829224,1065.248901 764.564697,1066.812256 776.153320,1069.021606 
	C779.744080,1069.706177 783.251953,1070.821777 786.805237,1071.710205 
	C787.439636,1071.868896 788.110535,1071.949707 788.764771,1071.950684 
	C805.297546,1071.974731 821.889343,1072.864624 838.347717,1071.763916 
	C857.502075,1070.483154 876.539246,1067.453979 895.628845,1065.196533 
	C896.779663,1065.060425 897.944092,1065.039795 899.717102,1064.975220 
	C900.885559,1064.711548 901.439209,1064.438110 901.992798,1064.164673 
	C902.426453,1064.102539 902.860168,1064.040405 903.895203,1064.056519 
	C905.649780,1063.719482 906.802979,1063.304199 907.956177,1062.888794 
	C909.031677,1062.586060 910.107239,1062.283325 911.842773,1062.060547 
	C913.999573,1061.481934 915.496399,1060.823242 916.993225,1060.164429 
	C918.720520,1059.765137 920.447876,1059.365845 922.818848,1059.163818 
	C924.872314,1059.687256 926.282349,1060.294067 927.691711,1060.292358 
	C935.017090,1060.284058 942.345764,1059.958252 949.665466,1060.112427 
	C951.803894,1060.157349 953.916748,1061.415771 956.041321,1062.118042 
	C938.781799,1071.940552 920.544739,1079.330078 901.254761,1084.082520 
	C889.938904,1086.870361 878.692261,1090.027588 867.264282,1092.244385 
	C857.750854,1094.089722 848.048523,1095.217773 838.375854,1095.924683 
	C824.172668,1096.962646 809.911499,1098.047607 795.692505,1097.850708 
	C768.583008,1097.475220 741.837158,1093.813110 715.700134,1086.304565 
	C714.944336,1086.087402 714.110535,1086.141724 713.032166,1086.885376 
	C719.103027,1089.575439 725.002441,1092.784546 731.277405,1094.856201 
	C748.594604,1100.573486 765.853333,1106.707397 783.544922,1110.979980 
	C799.470154,1114.825928 815.858826,1117.292847 832.187744,1118.783081 
	C850.489014,1120.453125 868.984802,1121.318726 887.336426,1120.717651 
	C904.068665,1120.169556 920.913818,1118.190674 937.358521,1115.022095 
	C956.500610,1111.333618 975.603455,1106.698975 994.094299,1100.575317 
	C1013.767700,1094.060059 1033.172485,1086.188599 1050.642456,1074.728271 
	C1066.456421,1064.354126 1081.914062,1053.397583 1097.090942,1042.108887 
	C1103.837769,1037.090576 1109.503418,1030.619629 1115.670532,1024.819458 
	C1116.756592,1023.797913 1117.895508,1022.832703 1119.010132,1021.841553 
	C1119.386719,1022.192383 1119.763184,1022.543152 1120.139771,1022.893921 
	C1117.881836,1025.965332 1115.972412,1029.385864 1113.306030,1032.048340 
	C1101.360229,1043.976685 1089.806396,1056.408325 1076.940918,1067.272583 
	C1064.653442,1077.648804 1051.292969,1086.895630 1037.726807,1095.581055 
	C1020.688782,1106.489380 1002.543823,1115.562988 983.283020,1121.923706 
	C967.888672,1127.007446 952.354065,1131.924316 936.554260,1135.446533 
	C922.148804,1138.657837 907.358765,1140.518188 892.636292,1141.832031 
	C876.810303,1143.244263 860.841919,1144.180176 844.979614,1143.740479 
	C830.193176,1143.330566 815.362366,1141.470215 800.737366,1139.099365 
	C784.101013,1136.402588 767.671204,1132.431885 750.962646,1128.975952 
	C757.023499,1131.845093 762.934814,1135.147583 769.199707,1137.513550 
	C787.048279,1144.253662 805.022583,1150.663696 822.989929,1157.084473 
	C827.313721,1158.629517 831.803040,1159.711182 836.603455,1161.089111 
z"/>
<path fill="#36AF49" opacity="1.000000" stroke="none" 
	d="
M999.402588,630.053833 
	C996.255981,629.407715 993.474060,628.100647 990.687927,628.091736 
	C949.484985,627.959778 908.281555,628.016113 867.078247,627.964111 
	C864.287720,627.960571 861.497864,627.448425 858.332031,626.992554 
	C875.908875,616.234619 893.369446,604.683350 911.928955,595.307312 
	C939.826294,581.214050 969.447998,571.391296 1000.322632,566.094788 
	C1017.949524,563.070923 1035.739014,560.659668 1053.555542,559.177002 
	C1068.909790,557.899292 1084.458984,557.351257 1099.829590,558.185120 
	C1144.047729,560.583740 1187.113403,569.186523 1227.941162,586.687988 
	C1246.190918,594.510986 1263.601685,604.292419 1281.372437,613.226379 
	C1282.017822,613.550781 1282.442871,614.313599 1283.864746,615.818481 
	C1281.545166,615.672607 1280.329468,615.808289 1279.242432,615.496094 
	C1261.768799,610.477722 1244.466553,604.749329 1226.798096,600.562683 
	C1214.399292,597.624634 1201.549438,596.325684 1188.823120,595.110291 
	C1175.977905,593.883545 1163.019897,592.892517 1150.141235,593.172363 
	C1128.081177,593.651855 1106.203003,596.119812 1084.496948,600.623535 
	C1054.923462,606.759766 1026.794189,616.701294 999.402588,630.053833 
z"/>
<path fill="#35AD48" opacity="1.000000" stroke="none" 
	d="
M1043.394531,689.051392 
	C1041.595337,688.759888 1040.101807,687.976379 1038.715454,688.134277 
	C1035.231567,688.530945 1031.798584,689.902039 1028.340820,689.918396 
	C997.635132,690.063538 966.928528,689.984924 936.222168,690.014587 
	C932.441650,690.018250 928.778809,690.031067 927.076904,685.265259 
	C939.915649,676.138855 952.561340,666.706421 966.038025,658.666809 
	C986.118713,646.687561 1007.765381,637.957336 1030.066406,630.930420 
	C1048.688477,625.062744 1067.694092,621.038635 1086.971802,617.794006 
	C1112.828613,613.441956 1138.805420,613.594299 1164.773926,614.208801 
	C1178.015625,614.522095 1191.355835,616.373169 1204.377808,618.925720 
	C1223.322510,622.639221 1242.204956,626.967651 1260.757568,632.279236 
	C1272.990479,635.781433 1284.737549,641.151062 1296.439941,646.282654 
	C1306.045532,650.494934 1315.264404,655.588989 1324.654785,660.292114 
	C1324.585449,660.751038 1324.516113,661.209900 1324.446777,661.668823 
	C1322.776855,661.517456 1321.042603,661.605835 1319.447266,661.176880 
	C1306.811401,657.779236 1294.325928,653.701538 1281.549561,650.981567 
	C1268.897705,648.288147 1256.006714,646.508789 1243.135376,645.117615 
	C1231.486206,643.858521 1219.696533,642.842590 1208.014893,643.205078 
	C1192.888306,643.674561 1177.799316,645.533081 1162.708618,646.946960 
	C1142.476929,648.842529 1123.111206,654.576111 1103.979248,660.995911 
	C1082.890991,668.072327 1062.874512,677.609985 1043.394531,689.051392 
z"/>
<path fill="#1F5E93" opacity="1.000000" stroke="none" 
	d="
M703.894287,1051.631958 
	C702.567017,1052.552979 701.080750,1053.807129 699.602356,1053.797852 
	C682.642395,1053.692139 665.683533,1053.394287 648.299622,1053.094727 
	C642.906860,1041.799194 637.827454,1030.603882 633.024597,1019.291016 
	C631.043823,1014.625549 629.656738,1009.707947 627.848389,1004.334839 
	C627.522034,1003.513916 627.339600,1003.268616 627.149719,1003.028809 
	C626.088501,999.303467 625.027344,995.578186 623.929077,991.453186 
	C624.330322,991.291504 625.027283,991.426758 625.168640,991.782654 
	C627.958069,998.806335 633.937012,998.035339 639.789246,998.031494 
	C712.414124,997.983398 785.039062,997.971802 857.663818,998.061279 
	C862.652222,998.067383 867.263184,997.587280 871.518677,994.130798 
	C871.027466,1003.535889 867.070068,1011.696594 860.745361,1018.733887 
	C844.261108,1037.075317 822.926636,1046.121948 799.311523,1051.074829 
	C783.908875,1054.305176 768.340393,1054.694702 752.829773,1053.813965 
	C733.965576,1052.743042 715.054260,1051.277588 696.665649,1046.286499 
	C695.597778,1045.996826 694.410583,1046.146851 693.049866,1046.785889 
	C694.917847,1047.630249 696.785889,1048.474609 698.911255,1049.853516 
	C700.127075,1050.552979 701.085388,1050.718018 702.043762,1050.882935 
	C702.608887,1051.048096 703.173950,1051.213135 703.894287,1051.631958 
z"/>
<path fill="#1F5E93" opacity="1.000000" stroke="none" 
	d="
M1303.402222,1126.882080 
	C1299.612061,1127.023682 1296.114624,1127.038696 1292.618408,1126.981323 
	C1286.613281,1126.883057 1286.386475,1126.560303 1287.902588,1120.250122 
	C1304.817871,1102.158447 1319.886841,1083.007690 1333.189697,1062.480591 
	C1351.299927,1034.535400 1365.484619,1004.715454 1374.017334,972.497986 
	C1378.757446,954.600342 1382.126709,936.332947 1385.861084,918.180176 
	C1386.752441,913.846924 1386.568115,909.299133 1387.018799,904.864258 
	C1387.149902,903.574341 1387.767334,902.333801 1388.161865,901.070618 
	C1388.708496,901.160156 1389.255005,901.249756 1389.801636,901.339294 
	C1389.548584,903.369446 1389.131104,905.394409 1389.067383,907.430420 
	C1388.098267,938.441162 1381.491699,968.504089 1372.733887,998.041992 
	C1368.304443,1012.981567 1361.963013,1027.388428 1355.972046,1041.822998 
	C1347.284912,1062.753418 1335.937500,1082.277710 1322.968262,1100.828491 
	C1316.805786,1109.643066 1310.135742,1118.102661 1303.402222,1126.882080 
z"/>
<path fill="#1F5E93" opacity="1.000000" stroke="none" 
	d="
M956.397339,1062.047119 
	C953.916748,1061.415771 951.803894,1060.157349 949.665466,1060.112427 
	C942.345764,1059.958252 935.017090,1060.284058 927.691711,1060.292358 
	C926.282349,1060.294067 924.872314,1059.687256 923.205688,1059.129150 
	C932.338684,1055.567017 941.867004,1052.578491 951.091553,1048.840332 
	C975.568848,1038.921387 998.832642,1026.777100 1019.456360,1010.027710 
	C1025.283569,1005.295105 1031.120850,1000.574890 1037.361206,995.518738 
	C1035.511719,1007.514771 984.074341,1049.527466 956.397339,1062.047119 
z"/>
<path fill="#1F5E93" opacity="1.000000" stroke="none" 
	d="
M916.640808,1060.138794 
	C915.496399,1060.823242 913.999573,1061.481934 912.198242,1062.044067 
	C913.358704,1061.336060 914.823547,1060.724609 916.640808,1060.138794 
z"/>
<path fill="#1E5C8E" opacity="1.000000" stroke="none" 
	d="
M701.852539,1050.608887 
	C701.085388,1050.718018 700.127075,1050.552979 699.107422,1050.134521 
	C699.917847,1050.032227 700.789551,1050.183472 701.852539,1050.608887 
z"/>
<path fill="#1F5E93" opacity="1.000000" stroke="none" 
	d="
M907.597229,1062.932251 
	C906.802979,1063.304199 905.649780,1063.719482 904.222168,1064.018188 
	C905.044556,1063.593018 906.141418,1063.284302 907.597229,1062.932251 
z"/>
<path fill="#36AF49" opacity="1.000000" stroke="none" 
	d="
M855.636780,628.942749 
	C855.141113,629.519226 854.322693,630.153198 853.195557,630.873291 
	C853.695923,630.306335 854.505005,629.653259 855.636780,628.942749 
z"/>
<path fill="#33A948" opacity="1.000000" stroke="none" 
	d="
M658.627258,689.102600 
	C658.674805,689.552307 658.460510,690.147278 658.066528,690.849854 
	C658.046326,690.387634 658.205872,689.817749 658.627258,689.102600 
z"/>
<path fill="#1F5E93" opacity="1.000000" stroke="none" 
	d="
M901.696228,1064.120850 
	C901.439209,1064.438110 900.885559,1064.711548 900.138550,1064.940674 
	C900.430054,1064.623169 900.914856,1064.350098 901.696228,1064.120850 
z"/>
<path fill="#37B149" opacity="1.000000" stroke="none" 
	d="
M859.522217,613.702393 
	C859.452759,613.676514 859.588562,613.494019 859.638733,613.501831 
	C859.688904,613.509644 859.591614,613.728333 859.522217,613.702393 
z"/>
<path fill="#206199" opacity="1.000000" stroke="none" 
	d="
M627.158813,1003.283081 
	C627.339600,1003.268616 627.522034,1003.513916 627.829834,1003.951416 
	C627.697693,1003.937927 627.432800,1003.737671 627.158813,1003.283081 
z"/>
<path fill="#000000" opacity="1.000000" stroke="none" 
	d="
M992.950806,729.921021 
	C993.364502,729.736328 993.586670,729.785095 993.808838,729.833862 
	C993.746155,730.092590 993.683472,730.351318 993.620789,730.610046 
	C993.333618,730.458191 993.046509,730.306335 992.950806,729.921021 
z"/>
<path fill="#33A948" opacity="1.000000" stroke="none" 
	d="
M791.863647,687.293213 
	C792.004944,687.406311 792.076843,687.567627 792.148743,687.728943 
	C792.030518,687.599792 791.912354,687.470642 791.863647,687.293213 
z"/>
<path fill="#000000" opacity="1.000000" stroke="none" 
	d="
M800.312317,676.670532 
	C800.734863,676.384827 801.107788,676.407043 801.480774,676.429260 
	C801.074768,676.612305 800.668762,676.795410 800.312317,676.670532 
z"/>
</svg>