<svg version="1.1" id="Layer_1" xmlns="http://www.w3.org/2000/svg" xmlns:xlink="http://www.w3.org/1999/xlink" x="0px" y="0px"
	 width="100%" viewBox="0 0 2000 2000" enable-background="new 0 0 2000 2000" xml:space="preserve">
<path fill="#000000" opacity="1.000000" stroke="none" 
	d="
M1270.000000,2001.000000 
	C846.666687,2001.000000 423.833344,2001.000000 1.000000,2001.000000 
	C1.000000,1334.333374 1.000000,667.666687 1.000000,1.000000 
	C667.666687,1.000000 1334.333374,1.000000 2001.000000,1.000000 
	C2001.000000,667.666687 2001.000000,1334.333374 2001.000000,2001.000000 
	C1757.500000,2001.000000 1514.000000,2001.000000 1270.000000,2001.000000 
M1306.481567,1123.874756 
	C1306.798584,1123.672485 1306.910645,1123.389038 1307.136719,1122.408813 
	C1311.977417,1115.895020 1317.214722,1109.634644 1321.574219,1102.813477 
	C1329.986572,1089.650757 1338.451660,1076.469360 1345.900757,1062.755615 
	C1358.019287,1040.445801 1367.622437,1016.993774 1374.218506,992.428467 
	C1377.489990,980.244690 1380.514038,967.966125 1382.937622,955.591003 
	C1385.396240,943.037109 1387.217896,930.341919 1388.829102,917.646484 
	C1389.511230,912.272034 1388.942993,906.738831 1388.942993,901.277710 
	C1387.917969,902.302551 1387.176025,903.624878 1387.025879,905.011414 
	C1386.546509,909.437927 1386.754028,913.984680 1385.861084,918.312683 
	C1382.123169,936.431274 1378.731689,954.659241 1374.006836,972.528198 
	C1365.539673,1004.550476 1351.402710,1034.165771 1333.520874,1062.004150 
	C1321.216187,1081.160522 1307.061646,1098.896484 1291.369751,1116.180786 
	C1290.481689,1117.312500 1289.593628,1118.444214 1288.651001,1119.591309 
	C1288.651001,1119.591309 1288.598145,1119.611816 1287.954590,1119.808472 
	C1282.586914,1124.738892 1277.135986,1129.582153 1271.867676,1134.616333 
	C1256.911499,1148.908203 1240.318481,1161.099976 1223.032349,1172.332886 
	C1203.098389,1185.286499 1182.132568,1196.337646 1159.988892,1205.098267 
	C1136.745972,1214.293823 1113.156128,1222.498291 1088.452393,1226.607300 
	C1069.812256,1229.707764 1051.025635,1232.830322 1032.201172,1233.692627 
	C1008.480957,1234.778809 984.588074,1235.353638 960.971130,1231.031494 
	C945.000977,1228.108765 928.815308,1226.123413 913.056335,1222.342041 
	C888.864380,1216.537109 865.459900,1208.158447 843.124939,1197.037598 
	C832.538452,1191.766235 822.005432,1186.387695 811.448120,1181.057739 
	C823.387268,1183.445923 834.858459,1186.806152 846.455261,1189.654663 
	C870.693909,1195.608154 895.303833,1199.153442 920.293762,1198.905396 
	C936.351868,1198.745972 952.450012,1198.235107 968.439087,1196.838867 
	C981.822937,1195.670288 995.201172,1193.596436 1008.358948,1190.853760 
	C1036.817261,1184.921875 1064.126831,1175.256958 1089.889526,1161.853882 
	C1104.601929,1154.199829 1118.864380,1145.450684 1132.463989,1135.955078 
	C1145.119019,1127.119141 1156.985962,1117.042725 1168.522339,1106.752686 
	C1177.171997,1099.037476 1184.725586,1090.096802 1192.804443,1081.737549 
	C1204.538696,1069.595947 1214.165649,1055.876953 1222.949341,1041.529297 
	C1223.491333,1040.643921 1223.626465,1039.509644 1223.950806,1038.491089 
	C1216.318115,1045.799561 1209.985840,1053.780640 1203.107422,1061.259399 
	C1187.594116,1078.127075 1169.926880,1092.626099 1151.263184,1105.781738 
	C1123.903687,1125.067017 1094.133423,1139.953491 1062.518433,1150.862305 
	C1042.817749,1157.660156 1022.666504,1162.904419 1001.982361,1166.242065 
	C983.740540,1169.185669 965.547852,1172.230957 947.040771,1171.920776 
	C926.819092,1171.581909 906.521545,1171.572266 886.417969,1169.695435 
	C870.153198,1168.177246 854.127014,1164.102417 837.195679,1161.036499 
	C807.037476,1153.761963 778.369751,1142.569946 749.788452,1128.343140 
	C751.231750,1128.156738 751.594299,1127.998047 751.875305,1128.089600 
	C781.298706,1137.677856 811.699280,1142.015503 842.413757,1143.790283 
	C857.276184,1144.648926 872.266724,1143.401489 887.194519,1142.951050 
	C891.637085,1142.817017 896.106079,1142.406982 900.489136,1141.678955 
	C911.000305,1139.932861 921.436218,1137.723633 931.959656,1136.063843 
	C950.294739,1133.171997 967.899902,1127.806274 985.869263,1120.961792 
	C1039.473511,1100.378662 1084.714966,1068.454102 1119.741211,1022.657227 
	C1118.427734,1022.592957 1117.503906,1023.091980 1116.739380,1023.770630 
	C1107.596436,1031.887573 1098.610840,1040.187378 1089.321289,1048.131958 
	C1074.242065,1061.027710 1057.803101,1072.167969 1040.006348,1080.737427 
	C1022.576599,1089.130127 1004.395813,1096.045776 986.264832,1102.865601 
	C976.641724,1106.485229 966.447937,1108.613770 956.467468,1111.247681 
	C949.685669,1113.037231 942.826965,1114.535522 935.216492,1116.040649 
	C933.476685,1116.414795 931.736816,1116.788818 929.253113,1117.043457 
	C928.503052,1117.083252 927.753052,1117.123047 926.181702,1117.046387 
	C922.769226,1117.646606 919.356689,1118.246948 915.102722,1118.966797 
	C913.402893,1119.032471 911.703064,1119.098145 909.192017,1119.091431 
	C906.458679,1119.448486 903.725342,1119.805542 900.210388,1120.043091 
	C898.761963,1120.345093 897.313538,1120.647217 894.960632,1120.985352 
	C891.304504,1121.044434 887.648315,1121.103638 883.250793,1121.043457 
	C882.503296,1121.083008 881.755798,1121.122681 880.177917,1121.038818 
	C878.782288,1121.080200 877.386719,1121.121460 875.166504,1121.041626 
	C873.780823,1121.081665 872.395142,1121.121826 870.078613,1121.036987 
	C861.050415,1120.745483 852.022278,1120.453979 842.201782,1120.041870 
	C841.136597,1120.082153 840.071472,1120.122437 838.181396,1120.038208 
	C835.452209,1119.746460 832.723022,1119.454834 829.201050,1119.041870 
	C828.135010,1119.082031 827.068970,1119.122192 825.168762,1119.038696 
	C821.444885,1118.413452 817.721008,1117.788086 813.159668,1117.040283 
	C811.560059,1116.705444 809.951599,1116.408081 808.362244,1116.030029 
	C790.245056,1111.722046 771.936890,1108.067871 754.078796,1102.868408 
	C740.441040,1098.897583 727.374329,1092.965576 713.782043,1087.400513 
	C713.204773,1086.966431 712.627441,1086.532471 712.830444,1086.026001 
	C713.874084,1086.053223 714.917725,1086.080444 716.339905,1086.670654 
	C717.226868,1086.724609 718.113892,1086.778564 719.686401,1087.208618 
	C742.798706,1094.155273 766.625977,1096.699219 790.559631,1097.876465 
	C813.371155,1098.998657 836.170898,1097.488037 858.720642,1093.862427 
	C870.604736,1091.951660 882.277893,1088.728882 894.849243,1086.018921 
	C903.910034,1083.290283 912.970886,1080.561768 922.528809,1077.823120 
	C922.834534,1077.645996 923.027588,1077.385498 923.848206,1076.960449 
	C969.897339,1059.363892 1033.283447,1014.297241 1037.453857,995.904480 
	C1036.713623,996.297668 1036.105835,996.501587 1035.645386,996.883118 
	C1029.307739,1002.134216 1023.243408,1007.753906 1016.624817,1012.620361 
	C986.908691,1034.469727 954.058350,1049.833374 918.557800,1059.771729 
	C892.768677,1066.991577 866.498169,1071.156250 839.803101,1071.817871 
	C825.413147,1072.174438 810.935425,1073.225220 796.520874,1071.099121 
	C791.903076,1070.417847 787.332031,1071.474731 782.404480,1070.274780 
	C767.157715,1066.561768 751.531067,1064.437256 736.208130,1060.999512 
	C725.372009,1058.568359 714.789612,1055.006104 703.788452,1051.415894 
	C703.208130,1051.245483 702.627869,1051.074951 701.681458,1050.341309 
	C700.804260,1050.195068 699.927124,1050.048828 698.661499,1049.314453 
	C696.619080,1048.434204 694.576721,1047.553833 691.237061,1046.114380 
	C693.865479,1046.114380 695.076904,1045.857666 696.134644,1046.152588 
	C714.453918,1051.259155 733.333069,1052.620361 752.139282,1053.817993 
	C768.292297,1054.846558 784.556091,1054.428589 800.505798,1050.926392 
	C823.431152,1045.892578 844.358643,1036.988281 860.445801,1019.054138 
	C867.105652,1011.629822 871.408508,1003.156067 871.955688,992.077148 
	C871.831604,988.102295 872.269165,984.012695 871.484314,980.172913 
	C868.406738,965.114685 858.720398,954.424377 846.661499,946.038513 
	C837.959656,939.987305 828.644348,934.550598 818.986389,930.211243 
	C807.493347,925.047424 795.567261,920.524963 783.425049,917.198425 
	C761.155029,911.097107 738.559326,906.235840 715.504517,903.938843 
	C699.141907,902.308655 682.790466,900.561951 666.419006,899.027832 
	C660.005615,898.426880 653.554138,898.032593 647.114868,897.950439 
	C634.231140,897.785950 621.343872,897.901611 608.273560,897.901611 
	C608.262207,897.949402 608.013550,898.428345 608.062378,898.874756 
	C609.686890,913.716736 610.626831,928.679688 613.180298,943.361694 
	C615.968140,959.391724 620.253662,975.161377 623.968750,991.850281 
	C626.946899,1000.856812 629.514282,1010.026245 633.005005,1018.829590 
	C637.586426,1030.384033 642.895569,1041.649780 648.010254,1053.761353 
	C649.052368,1055.981689 649.949158,1058.284912 651.162415,1060.407471 
	C655.683411,1068.317139 660.308167,1076.167480 665.007385,1084.751587 
	C673.657715,1097.203857 682.307983,1109.656006 691.246887,1122.719116 
	C693.025635,1124.876221 694.695312,1127.135132 696.600769,1129.173828 
	C709.352173,1142.817139 722.153809,1156.413452 735.314514,1170.582153 
	C738.488586,1173.491577 741.421753,1176.730957 744.877747,1179.254272 
	C761.309570,1191.250732 777.522034,1203.600952 794.494812,1214.790283 
	C817.838562,1230.179688 843.207092,1241.798096 869.602051,1250.901489 
	C894.936279,1259.639038 920.836670,1266.408569 947.621155,1269.015991 
	C963.534180,1270.564819 979.470520,1272.285156 995.432251,1272.786133 
	C1007.111267,1273.152710 1018.869446,1271.908081 1030.554199,1270.927002 
	C1043.006592,1269.881470 1055.553223,1269.056152 1067.811035,1266.792969 
	C1091.244751,1262.466675 1114.319946,1256.540894 1136.641602,1247.982056 
	C1160.262207,1238.925049 1182.906860,1227.880005 1204.524658,1214.751221 
	C1224.596558,1202.561157 1243.438354,1188.574829 1260.574097,1172.615479 
	C1276.799072,1157.504395 1292.930176,1142.135132 1306.026245,1124.027222 
	C1306.026245,1124.027222 1306.032715,1124.063110 1306.481567,1123.874756 
M658.853516,688.614075 
	C658.531189,689.395630 658.208862,690.177124 657.346802,691.262878 
	C656.860168,692.161926 656.373474,693.060974 655.297546,694.329224 
	C643.287781,717.383789 632.794556,741.082520 625.524719,766.087341 
	C622.750122,775.630676 620.600220,785.355530 617.852844,795.604736 
	C611.905579,819.261719 609.447693,843.364136 608.182495,868.121948 
	C609.459839,867.564270 610.294128,867.388672 610.880310,866.909546 
	C612.803650,865.337341 614.547974,863.538391 616.518555,862.032837 
	C637.946106,845.661194 661.286682,832.914124 686.663513,823.597656 
	C715.215393,813.115295 744.726746,807.943054 774.903992,807.252991 
	C791.522278,806.872986 808.253540,808.455200 824.829712,810.163208 
	C837.667908,811.486084 850.571106,813.510925 863.040649,816.771729 
	C882.363586,821.824585 901.552734,827.588928 920.417847,834.146973 
	C950.627441,844.648865 978.909607,859.445007 1007.109131,874.439514 
	C1027.333862,885.193604 1047.844482,895.558838 1068.854004,904.649902 
	C1093.387207,915.265747 1118.897949,923.484192 1145.229614,928.483765 
	C1161.656982,931.602783 1178.243896,934.843506 1194.878052,935.686584 
	C1220.634033,936.991882 1246.462524,936.476807 1271.972900,931.097961 
	C1292.256836,926.821289 1311.887695,920.830078 1330.706665,912.105347 
	C1349.332764,903.469971 1365.895386,891.642700 1382.125000,879.290588 
	C1384.982788,877.115540 1387.442139,874.416992 1390.559570,871.519470 
	C1384.764038,870.942993 1380.038940,870.259460 1375.292603,870.044556 
	C1364.859375,869.572266 1354.402100,869.562195 1343.979248,868.947754 
	C1330.974487,868.181152 1317.949097,867.387939 1305.014893,865.894104 
	C1288.387695,863.973816 1271.745239,861.882446 1255.282715,858.905701 
	C1225.951294,853.602112 1197.417603,845.670288 1171.062622,831.089294 
	C1155.590088,822.529053 1142.526123,811.639099 1133.689331,795.279602 
	C1133.420532,794.342285 1133.291504,793.335083 1132.862305,792.478149 
	C1125.948853,778.676331 1127.875854,764.908508 1134.001465,751.696106 
	C1141.603638,735.298767 1154.440308,723.440308 1169.575806,713.938049 
	C1191.162720,700.385498 1214.905396,692.629700 1240.118164,691.354736 
	C1256.816284,690.510376 1273.818848,691.994141 1290.435669,694.262451 
	C1307.228882,696.554810 1323.712646,701.108154 1340.337158,704.647217 
	C1342.738892,705.158508 1345.168823,705.536682 1347.585693,705.976501 
	C1347.678101,705.513000 1347.770508,705.049561 1347.862915,704.586060 
	C1305.560669,681.848022 1259.951782,669.786255 1212.292725,667.419128 
	C1134.377563,663.549194 1061.650757,680.688782 997.004456,726.763733 
	C997.713074,724.981689 998.621277,723.592712 999.859375,722.626648 
	C1014.224243,711.418335 1028.639038,700.273987 1043.750977,688.990051 
	C1047.587036,686.769531 1051.350098,684.409912 1055.270752,682.350281 
	C1089.087280,664.584045 1124.523193,651.582397 1162.644897,647.030945 
	C1178.172729,645.176880 1193.798950,643.717590 1209.417603,643.201050 
	C1220.593750,642.831421 1231.880859,643.883667 1243.029175,645.111328 
	C1255.893188,646.527954 1268.790527,648.219666 1281.430786,650.925598 
	C1294.352173,653.691711 1306.967896,657.873779 1319.750244,661.314636 
	C1321.271240,661.724060 1322.997681,661.370361 1324.628906,661.370361 
	C1317.928101,656.960449 1311.405518,652.711304 1304.317261,649.875977 
	C1285.639038,642.404297 1266.911865,634.958374 1247.841675,628.586792 
	C1221.403564,619.753357 1193.852539,615.575806 1166.163208,614.282288 
	C1139.912476,613.055908 1113.580811,613.471619 1087.375366,617.750549 
	C1067.427612,621.007751 1047.768555,625.158264 1028.594971,631.346313 
	C1004.809570,639.022766 981.735840,648.558411 960.514526,661.934875 
	C949.035583,669.170288 938.088013,677.248901 926.285522,685.232788 
	C921.447815,689.048889 916.610168,692.864990 911.772461,696.681152 
	C911.537964,696.377747 911.303406,696.074341 911.068848,695.770935 
	C912.084961,694.526184 913.101074,693.281433 914.708557,691.750061 
	C919.432251,687.371765 923.993286,682.800049 928.915710,678.657959 
	C937.458923,671.468811 945.786621,663.896973 955.000000,657.660522 
	C969.330444,647.960266 984.326721,639.243713 999.766724,629.996704 
	C1027.116333,616.252502 1055.831909,606.388123 1085.771606,600.171448 
	C1107.248901,595.711853 1129.039551,593.614319 1150.946899,593.087769 
	C1159.377441,592.885132 1167.856445,593.369141 1176.269165,594.070190 
	C1189.547729,595.176758 1202.912842,596.008362 1216.018066,598.257751 
	C1237.646729,601.970032 1258.814575,607.736145 1279.374634,615.563293 
	C1280.379028,615.945740 1281.655762,615.612427 1282.805664,615.612427 
	C1283.079590,615.121399 1283.353516,614.630371 1283.627441,614.139282 
	C1282.860962,613.805481 1282.077515,613.505676 1281.330444,613.132812 
	C1263.548950,604.257996 1246.150757,594.490051 1227.915894,586.673950 
	C1187.143066,569.197632 1144.131592,560.619141 1099.980225,558.185242 
	C1084.620239,557.338562 1069.078491,557.901794 1053.732666,559.178467 
	C1035.773926,560.672607 1017.833740,563.043396 1000.072937,566.117065 
	C969.747986,571.365173 940.580750,580.917542 913.145935,594.721985 
	C894.152710,604.278809 876.285400,616.073120 857.360718,627.164551 
	C856.562927,627.830994 855.765076,628.497437 854.461975,629.168030 
	C854.267517,629.434326 854.072998,629.700562 853.262756,630.251526 
	C852.677795,630.534180 851.998535,630.706787 851.521484,631.115479 
	C837.961731,642.731689 823.387878,653.220276 812.037048,667.288757 
	C809.787476,670.076843 806.451233,671.988098 803.616089,674.303711 
	C803.445496,672.836304 803.862366,671.864685 804.470520,671.032959 
	C807.634033,666.706543 810.846252,662.415710 814.648804,657.808960 
	C816.082703,656.221497 817.468628,654.587402 818.958618,653.054565 
	C827.199280,644.576599 835.328003,635.983276 843.768188,627.708130 
	C849.972900,621.624695 856.596802,615.968750 863.654480,609.814453 
	C872.985962,603.162781 882.161987,596.278931 891.679810,589.905457 
	C914.841309,574.395691 939.549316,561.744446 966.036743,553.114685 
	C984.009766,547.258972 1002.361267,542.303589 1020.846069,538.366394 
	C1034.735840,535.407898 1049.068359,533.897522 1063.273804,533.227661 
	C1077.828369,532.541321 1092.505859,533.125732 1107.060303,534.143799 
	C1121.423828,535.148376 1135.898682,536.427551 1149.969727,539.315796 
	C1171.452393,543.725403 1192.679932,549.448853 1212.864746,558.385864 
	C1215.332520,559.478455 1217.974243,560.177856 1220.535400,561.059448 
	C1221.005127,560.375061 1221.474854,559.690613 1221.944458,559.006226 
	C1220.771362,558.387817 1219.563232,557.827148 1218.430298,557.142090 
	C1207.493042,550.529663 1196.824341,543.421326 1185.587036,537.367615 
	C1162.143066,524.737854 1137.661865,514.531982 1112.093262,506.855408 
	C1084.345337,498.524506 1056.009888,493.441101 1027.225830,491.179718 
	C1013.621948,490.110931 999.850647,490.603149 986.181335,491.103271 
	C973.355164,491.572540 960.468079,492.321136 947.780640,494.147461 
	C931.451965,496.497955 914.977844,498.915436 899.147339,503.369293 
	C880.326721,508.664459 862.033997,515.913635 843.675720,522.754028 
	C823.225708,530.373779 804.428284,541.334595 786.335022,553.349976 
	C774.193909,561.412659 762.547424,570.295532 751.203247,579.459717 
	C741.722046,587.118958 733.000916,595.719055 723.340088,604.194214 
	C714.940186,613.252136 706.344910,622.139221 698.214355,631.432739 
	C693.412048,636.921997 689.345154,643.054443 684.331726,649.206482 
	C675.943115,662.150940 667.554504,675.095459 658.853516,688.614075 
M924.983643,1550.527466 
	C918.301025,1560.752319 911.618469,1570.977295 904.694885,1581.570923 
	C903.090637,1579.012573 901.919983,1577.093140 900.698853,1575.206421 
	C890.288574,1559.123047 879.886108,1543.034546 869.406921,1526.996338 
	C868.828369,1526.110718 867.601685,1525.105347 866.658325,1525.086792 
	C858.882324,1524.933228 851.101929,1525.000122 843.228394,1525.000122 
	C843.228394,1566.195801 843.228394,1606.929810 843.228394,1647.767822 
	C850.863403,1647.767822 858.267944,1647.767822 866.062378,1647.767822 
	C866.062378,1620.524292 866.062378,1593.509033 866.062378,1565.984497 
	C879.052490,1585.888916 891.692139,1605.256348 904.876099,1625.457764 
	C918.222839,1604.975708 930.608521,1585.968506 942.994202,1566.961426 
	C943.419861,1567.170776 943.845581,1567.380127 944.271240,1567.589478 
	C944.271240,1594.336792 944.271240,1621.084106 944.271240,1647.999268 
	C950.601807,1647.999268 956.592651,1647.818115 962.565674,1648.066772 
	C966.202454,1648.218018 967.058899,1646.753906 967.050842,1643.379395 
	C966.960388,1605.385620 966.966003,1567.391357 967.044495,1529.397461 
	C967.050964,1526.257812 966.249023,1524.834351 962.844360,1524.942383 
	C956.518372,1525.143066 950.178833,1524.906616 943.851685,1525.087402 
	C942.733459,1525.119263 941.253235,1526.028687 940.609680,1526.984009 
	C935.483276,1534.593628 930.518250,1542.312134 924.983643,1550.527466 
M1106.390503,1559.000000 
	C1102.557983,1559.000000 1098.722046,1559.100586 1094.894287,1558.965698 
	C1092.189697,1558.870239 1090.957031,1559.760986 1090.963623,1562.657104 
	C1091.024902,1589.817749 1091.036499,1616.978760 1090.951050,1644.139282 
	C1090.940918,1647.344238 1092.325439,1648.131104 1095.190796,1648.037842 
	C1099.685059,1647.891357 1104.223022,1647.645386 1108.677368,1648.091187 
	C1113.873291,1648.611084 1115.127563,1646.383789 1115.072754,1641.645020 
	C1114.883911,1625.317383 1115.045654,1608.986084 1114.973511,1592.656616 
	C1114.950439,1587.442139 1117.909790,1584.183105 1122.044678,1582.073242 
	C1126.097900,1580.004883 1130.493774,1579.964600 1134.695801,1582.190552 
	C1140.716187,1585.379517 1141.811646,1591.200684 1141.910645,1597.036743 
	C1142.173218,1612.529053 1141.993652,1628.028564 1142.010010,1643.525269 
	C1142.011597,1644.958862 1142.156494,1646.392212 1142.244385,1647.999146 
	C1148.406860,1647.999146 1154.233032,1647.760986 1160.028442,1648.080322 
	C1164.099609,1648.304688 1165.126709,1646.812988 1165.081055,1642.916626 
	C1164.889404,1626.589111 1164.985596,1610.257935 1165.008057,1593.928101 
	C1165.016113,1588.097900 1168.288208,1583.635864 1174.062378,1581.413574 
	C1179.030151,1579.501465 1185.291260,1580.561523 1188.280640,1585.056396 
	C1190.380127,1588.213135 1191.760620,1592.452271 1191.842285,1596.243042 
	C1192.211670,1613.353394 1192.003662,1630.476440 1192.003662,1647.795776 
	C1199.789917,1647.795776 1207.193848,1647.795776 1214.999878,1647.795776 
	C1214.999878,1629.994751 1215.162842,1612.376343 1214.907471,1594.763794 
	C1214.823120,1588.951416 1214.450806,1582.919189 1212.810547,1577.403809 
	C1210.067627,1568.180420 1205.269043,1560.156738 1194.643433,1558.001953 
	C1180.679321,1555.170532 1167.897705,1557.390869 1156.912842,1567.217163 
	C1144.064575,1552.924316 1130.020874,1554.297119 1115.105103,1563.842407 
	C1115.735352,1556.791382 1110.604492,1559.518066 1106.390503,1559.000000 
M421.999847,1531.579102 
	C421.999847,1570.332275 421.999847,1609.085571 421.999847,1647.680908 
	C430.039886,1647.680908 437.447571,1647.680908 445.276978,1647.680908 
	C445.276978,1633.348877 445.276978,1619.332520 445.276978,1604.854004 
	C459.161621,1618.722656 472.572388,1632.153809 486.052551,1645.514893 
	C487.136749,1646.589478 488.684998,1647.862305 490.041016,1647.889893 
	C499.962555,1648.091675 509.890076,1647.998657 519.815735,1647.998657 
	C520.174500,1647.494263 520.533264,1646.989990 520.892029,1646.485596 
	C511.137604,1636.523315 501.204163,1626.725586 491.347687,1616.860229 
	C481.245422,1606.749023 471.090668,1596.690308 460.889618,1586.539795 
	C479.483002,1567.967041 497.900116,1549.619385 516.220398,1531.175659 
	C517.660583,1529.725708 518.426697,1527.605957 519.981934,1525.000000 
	C509.696075,1525.000000 501.029510,1524.798462 492.383820,1525.135132 
	C490.084991,1525.224731 487.323669,1526.425049 485.670349,1528.035278 
	C473.135315,1540.241089 460.826965,1552.679565 448.434814,1565.032349 
	C447.477173,1565.986938 446.420044,1566.841919 444.745575,1568.334839 
	C444.745575,1553.313110 444.745575,1539.236450 444.745575,1525.322998 
	C436.967163,1525.322998 429.560883,1525.322998 421.999847,1525.322998 
	C421.999847,1527.297729 421.999847,1528.950317 421.999847,1531.579102 
M1239.950317,1573.577881 
	C1237.942505,1577.200562 1235.833252,1580.771118 1233.944580,1584.454956 
	C1226.130493,1599.696899 1229.543213,1622.902954 1242.080200,1635.556519 
	C1255.533325,1649.134766 1271.794678,1652.661865 1290.000244,1648.472778 
	C1297.649902,1646.712646 1304.572754,1643.355591 1310.033203,1637.448730 
	C1313.182251,1634.042236 1312.837524,1632.607422 1308.611206,1630.979004 
	C1303.674194,1629.076782 1298.864746,1626.830811 1293.882935,1625.063843 
	C1292.053711,1624.415039 1289.875854,1624.484863 1287.882202,1624.614868 
	C1282.535645,1624.964111 1277.132935,1626.286133 1271.882568,1625.804077 
	C1265.412842,1625.210083 1260.550171,1621.141113 1256.384277,1614.975952 
	C1279.140015,1614.975952 1301.028442,1614.975952 1322.721069,1614.975952 
	C1323.226196,1612.921631 1323.868042,1611.364746 1323.958740,1609.776489 
	C1324.689941,1596.965088 1322.644409,1585.135986 1314.333374,1574.509399 
	C1305.952515,1563.793457 1295.054321,1558.391235 1282.113525,1557.124512 
	C1265.794434,1555.526978 1251.597412,1560.583618 1239.950317,1573.577881 
M753.646240,1591.118896 
	C754.764038,1596.449341 756.625000,1601.748779 756.847595,1607.116455 
	C757.337402,1618.923584 757.135986,1630.767700 756.923279,1642.591431 
	C756.851807,1646.558228 757.691711,1648.458496 762.146912,1648.085449 
	C766.778748,1647.697632 771.483521,1647.768188 776.128113,1648.071167 
	C779.943054,1648.319946 781.008850,1646.502686 781.007202,1643.201538 
	C780.994141,1616.381348 780.975098,1589.561035 781.036377,1562.740967 
	C781.042847,1559.918213 779.962708,1558.894043 777.191284,1558.963013 
	C772.030334,1559.091675 766.853210,1559.202759 761.703430,1558.931152 
	C758.086792,1558.740356 756.398560,1559.948486 756.985657,1563.787231 
	C744.792419,1556.395874 732.067078,1555.210449 718.769531,1558.665894 
	C705.137268,1562.208496 696.262817,1570.912842 690.562988,1583.681885 
	C687.004211,1591.654541 686.653625,1599.818237 687.065491,1608.119995 
	C687.874207,1624.421387 695.502808,1637.043335 709.745728,1644.800537 
	C721.283142,1651.084473 733.837280,1651.785522 746.584167,1648.050659 
	C751.216309,1646.693359 752.201965,1645.326172 750.450867,1640.937012 
	C748.671143,1636.476318 746.678284,1632.094727 745.063171,1627.576782 
	C744.204895,1625.176270 743.293457,1624.904419 740.792786,1625.555542 
	C731.128906,1628.071655 722.897217,1625.640381 715.697998,1618.382446 
	C710.088623,1612.727173 708.341614,1601.839600 711.624634,1594.846313 
	C715.580078,1586.420532 726.190491,1579.197144 733.971313,1580.062744 
	C741.737000,1580.927002 748.409973,1584.003906 753.646240,1591.118896 
M644.968018,1629.348633 
	C654.649231,1608.546143 664.360474,1587.757446 673.969849,1566.921875 
	C675.050293,1564.579224 675.555237,1561.971313 676.478088,1559.000000 
	C671.574280,1559.000000 667.592896,1559.000000 663.611511,1559.000000 
	C650.167053,1559.000000 650.167175,1559.000000 645.237915,1571.373657 
	C645.177917,1571.524292 645.097473,1571.666870 645.029297,1571.814453 
	C637.949707,1587.145142 630.870544,1602.475952 623.636108,1618.142822 
	C622.900574,1616.748657 622.412415,1615.917236 622.009827,1615.046143 
	C614.001831,1597.720703 606.052551,1580.367554 597.923950,1563.098999 
	C597.154480,1561.464478 595.327942,1559.257568 593.895935,1559.183838 
	C586.316345,1558.793213 578.705933,1559.000488 570.307678,1559.000488 
	C571.335510,1561.951172 571.921082,1564.275146 572.920959,1566.404663 
	C584.517395,1591.103516 596.140869,1615.789917 607.839539,1640.440552 
	C611.546936,1648.252563 605.600281,1658.296021 596.688599,1658.999146 
	C588.414978,1659.651855 588.409424,1659.650513 586.318176,1667.317627 
	C585.852966,1669.023071 585.408264,1670.735474 585.012085,1672.458130 
	C582.817627,1681.998657 582.830994,1681.755859 592.867188,1682.052124 
	C612.154968,1682.621460 624.676086,1673.200439 632.377930,1656.183228 
	C636.346313,1647.415039 640.467590,1638.715942 644.968018,1629.348633 
M1030.436523,1557.000000 
	C1005.239807,1555.103149 985.504883,1574.358276 982.204651,1596.316650 
	C978.478394,1621.109985 993.603333,1643.262695 1017.407471,1648.809082 
	C1034.496338,1652.790771 1050.592407,1649.568726 1063.151001,1636.227905 
	C1074.067505,1624.631592 1077.432739,1610.692017 1075.095215,1594.912354 
	C1071.931396,1573.554199 1052.992920,1556.940186 1030.436523,1557.000000 
M1339.000000,1565.576660 
	C1339.000000,1592.994629 1339.000000,1620.412720 1339.000000,1647.687378 
	C1347.029419,1647.687378 1354.436401,1647.687378 1362.999634,1647.687378 
	C1362.999634,1630.484253 1362.712646,1613.587646 1363.096313,1596.706299 
	C1363.371582,1584.593506 1377.625977,1577.053833 1388.698730,1581.943604 
	C1397.796753,1585.961060 1400.876587,1593.658569 1400.962524,1602.879395 
	C1401.101807,1617.817505 1401.000000,1632.757812 1401.000000,1647.754639 
	C1408.891968,1647.754639 1416.296143,1647.754639 1422.999756,1647.754639 
	C1422.999756,1627.804321 1424.073608,1608.022339 1422.579956,1588.436157 
	C1421.740356,1577.425415 1415.221924,1567.664185 1404.700806,1562.002563 
	C1390.896729,1554.573975 1377.181030,1554.781860 1363.709106,1563.016968 
	C1363.251709,1563.296509 1362.701538,1563.424683 1362.089600,1563.664551 
	C1362.004761,1561.935913 1361.935791,1560.527832 1361.876587,1559.320557 
	C1353.962280,1559.320557 1346.552002,1559.320557 1339.000000,1559.320557 
	C1339.000000,1561.293701 1339.000000,1562.946655 1339.000000,1565.576660 
M1502.021362,1572.871094 
	C1499.614746,1579.464966 1498.898071,1586.336182 1500.680664,1593.037598 
	C1502.894043,1601.358887 1509.659424,1606.265503 1516.790649,1609.791260 
	C1523.894287,1613.303223 1531.823242,1615.110107 1539.177979,1618.174072 
	C1541.177002,1619.006714 1542.409302,1621.679199 1543.993408,1623.507446 
	C1542.068848,1625.004517 1540.337158,1627.355957 1538.184448,1627.841675 
	C1531.207520,1629.415894 1524.872803,1627.337524 1519.890869,1622.256592 
	C1517.267090,1619.580933 1515.544800,1619.499634 1513.099243,1622.296143 
	C1510.365845,1625.421997 1507.264160,1628.225830 1504.323486,1631.170532 
	C1499.638916,1635.861206 1499.697144,1636.268433 1505.466064,1640.108765 
	C1506.012451,1640.472656 1506.393066,1641.093384 1506.949219,1641.433594 
	C1522.369507,1650.862549 1538.350342,1654.089844 1555.179688,1645.305054 
	C1568.112915,1638.553955 1571.430054,1616.186890 1561.342773,1605.780518 
	C1554.364502,1598.581299 1546.132935,1593.990234 1536.316284,1591.894531 
	C1532.769653,1591.137329 1529.358032,1589.512451 1526.067749,1587.908325 
	C1524.787720,1587.284302 1523.164551,1585.580078 1523.224854,1584.449219 
	C1523.297607,1583.082886 1524.712524,1581.260986 1526.033081,1580.581421 
	C1531.306274,1577.867188 1536.697021,1578.133667 1541.740723,1581.285522 
	C1544.433472,1582.968262 1546.880493,1585.044434 1549.560547,1587.033691 
	C1551.338989,1585.223145 1552.926147,1583.515747 1554.613281,1581.913818 
	C1556.397461,1580.219482 1558.145752,1578.440796 1560.140015,1577.023071 
	C1565.518433,1573.199951 1565.417358,1569.932495 1560.143799,1565.968140 
	C1550.891602,1559.012817 1540.545288,1556.582886 1529.120483,1556.915039 
	C1517.328125,1557.257935 1508.249756,1561.759277 1502.021362,1572.871094 
M1482.826050,1625.348999 
	C1478.513550,1625.232666 1474.196655,1625.198364 1469.889648,1624.976440 
	C1465.751953,1624.763184 1462.411499,1623.047363 1462.063721,1618.530029 
	C1461.482788,1610.984985 1461.200317,1603.407227 1461.171875,1595.841797 
	C1461.168335,1594.899170 1463.398804,1593.278809 1464.723633,1593.130493 
	C1468.180298,1592.744019 1471.709839,1592.949341 1475.208374,1593.016602 
	C1477.837891,1593.067017 1478.888306,1592.243042 1478.192749,1589.373657 
	C1476.645752,1582.992188 1475.364258,1576.546387 1473.947144,1570.000000 
	C1471.190063,1570.000000 1468.843140,1569.771240 1466.557983,1570.048950 
	C1462.177002,1570.581421 1460.739258,1568.960083 1460.900879,1564.497314 
	C1461.231323,1555.375488 1461.000000,1546.233276 1461.000000,1536.528320 
	C1454.828003,1538.038330 1449.269775,1539.907471 1443.565796,1540.639404 
	C1438.621704,1541.273682 1437.919556,1543.774902 1437.941040,1547.956177 
	C1438.062622,1571.621338 1437.939575,1595.287842 1438.028076,1618.953247 
	C1438.066162,1629.156494 1443.012451,1637.032104 1450.925903,1642.929199 
	C1462.315674,1651.416504 1475.465088,1646.860229 1489.239502,1648.215820 
	C1486.931641,1640.094971 1484.960205,1633.157715 1482.826050,1625.348999 
M558.000122,1580.500244 
	C558.000061,1574.671631 558.190063,1568.832153 557.861572,1563.022095 
	C557.782959,1561.631836 556.037964,1559.241089 554.956665,1559.181641 
	C548.383240,1558.821045 541.780151,1559.001709 535.295166,1559.001709 
	C535.295166,1588.977173 535.295166,1618.363403 535.295166,1647.999023 
	C541.393860,1647.999023 547.211853,1647.765503 553.000305,1648.078735 
	C557.028442,1648.296753 558.116089,1646.885132 558.082214,1642.950195 
	C557.906006,1622.468140 558.000122,1601.983765 558.000122,1580.500244 
M544.516663,1548.000000 
	C547.847290,1547.999878 551.201599,1548.226685 554.496277,1547.882446 
	C555.731812,1547.753296 557.796509,1546.336548 557.834229,1545.437500 
	C558.117493,1538.691528 557.988464,1531.928345 557.988464,1525.300293 
	C549.988037,1525.300293 542.584717,1525.300293 535.297974,1525.300293 
	C535.297974,1533.007202 535.297974,1540.410400 535.297974,1548.000000 
	C538.240295,1548.000000 540.885925,1548.000000 544.516663,1548.000000 
z"/>
<path fill="#33A948" opacity="1.000000" stroke="none" 
	d="
M618.165649,794.997681 
	C620.600220,785.355530 622.750122,775.630676 625.524719,766.087341 
	C632.794556,741.082520 643.287781,717.383789 656.069336,694.157288 
	C696.125366,693.990234 735.409729,693.988159 774.694031,694.010254 
	C778.872375,694.012634 783.451660,692.885010 785.987061,698.914246 
	C788.406067,693.432007 792.299622,693.966919 796.133606,693.973328 
	C825.430298,694.021973 854.728577,694.163513 884.023193,693.909790 
	C894.059204,693.822937 904.086060,692.691101 914.117126,692.036621 
	C913.101074,693.281433 912.084961,694.526184 911.068848,695.770935 
	C911.303406,696.074341 911.537964,696.377747 911.772461,696.681152 
	C916.610168,692.864990 921.447815,689.048889 926.889526,685.296204 
	C928.875854,689.248169 931.651550,690.111572 935.641907,690.090820 
	C967.100647,689.927307 998.560730,690.047241 1030.019775,689.914734 
	C1032.675903,689.903503 1035.347412,688.758972 1037.973877,688.008545 
	C1039.915405,687.453979 1042.060669,685.442566 1043.040527,689.112671 
	C1028.639038,700.273987 1014.224243,711.418335 999.859375,722.626648 
	C998.621277,723.592712 997.713074,724.981689 997.004456,726.763733 
	C1061.650757,680.688782 1134.377563,663.549194 1212.292725,667.419128 
	C1259.951782,669.786255 1305.560669,681.848022 1347.862915,704.586060 
	C1347.770508,705.049561 1347.678101,705.513000 1347.585693,705.976501 
	C1345.168823,705.536682 1342.738892,705.158508 1340.337158,704.647217 
	C1323.712646,701.108154 1307.228882,696.554810 1290.435669,694.262451 
	C1273.818848,691.994141 1256.816284,690.510376 1240.118164,691.354736 
	C1214.905396,692.629700 1191.162720,700.385498 1169.575806,713.938049 
	C1154.440308,723.440308 1141.603638,735.298767 1134.001465,751.696106 
	C1127.875854,764.908508 1125.948853,778.676331 1132.862305,792.478149 
	C1133.291504,793.335083 1133.420532,794.342285 1133.339355,795.638733 
	C1129.702637,795.665222 1126.416260,795.042542 1123.129517,795.041565 
	C957.902161,794.994202 792.674744,795.000000 627.447388,794.999878 
	C624.353455,794.999878 621.259583,794.998413 618.165649,794.997681 
M992.761292,730.814697 
	C993.076965,730.625671 993.392639,730.436707 993.708252,730.247681 
	C993.286621,730.267395 992.865051,730.287109 992.761292,730.814697 
z"/>
<path fill="#30A246" opacity="1.000000" stroke="none" 
	d="
M618.009277,795.301208 
	C621.259583,794.998413 624.353455,794.999878 627.447388,794.999878 
	C792.674744,795.000000 957.902161,794.994202 1123.129517,795.041565 
	C1126.416260,795.042542 1129.702637,795.665222 1133.411865,795.996704 
	C1142.526123,811.639099 1155.590088,822.529053 1171.062622,831.089294 
	C1197.417603,845.670288 1225.951294,853.602112 1255.282715,858.905701 
	C1271.745239,861.882446 1288.387695,863.973816 1305.014893,865.894104 
	C1317.949097,867.387939 1330.974487,868.181152 1343.979248,868.947754 
	C1354.402100,869.562195 1364.859375,869.572266 1375.292603,870.044556 
	C1380.038940,870.259460 1384.764038,870.942993 1390.559570,871.519470 
	C1387.442139,874.416992 1384.982788,877.115540 1382.125000,879.290588 
	C1365.895386,891.642700 1349.332764,903.469971 1330.706665,912.105347 
	C1311.887695,920.830078 1292.256836,926.821289 1271.972900,931.097961 
	C1246.462524,936.476807 1220.634033,936.991882 1194.878052,935.686584 
	C1178.243896,934.843506 1161.656982,931.602783 1145.229614,928.483765 
	C1118.897949,923.484192 1093.387207,915.265747 1068.854004,904.649902 
	C1047.844482,895.558838 1027.333862,885.193604 1007.109131,874.439514 
	C978.909607,859.445007 950.627441,844.648865 920.417847,834.146973 
	C901.552734,827.588928 882.363586,821.824585 863.040649,816.771729 
	C850.571106,813.510925 837.667908,811.486084 824.829712,810.163208 
	C808.253540,808.455200 791.522278,806.872986 774.903992,807.252991 
	C744.726746,807.943054 715.215393,813.115295 686.663513,823.597656 
	C661.286682,832.914124 637.946106,845.661194 616.518555,862.032837 
	C614.547974,863.538391 612.803650,865.337341 610.880310,866.909546 
	C610.294128,867.388672 609.459839,867.564270 608.182495,868.121948 
	C609.447693,843.364136 611.905579,819.261719 618.009277,795.301208 
z"/>
<path fill="#1D5887" opacity="1.000000" stroke="none" 
	d="
M1306.062378,1124.049927 
	C1292.930176,1142.135132 1276.799072,1157.504395 1260.574097,1172.615479 
	C1243.438354,1188.574829 1224.596558,1202.561157 1204.524658,1214.751221 
	C1182.906860,1227.880005 1160.262207,1238.925049 1136.641602,1247.982056 
	C1114.319946,1256.540894 1091.244751,1262.466675 1067.811035,1266.792969 
	C1055.553223,1269.056152 1043.006592,1269.881470 1030.554199,1270.927002 
	C1018.869446,1271.908081 1007.111267,1273.152710 995.432251,1272.786133 
	C979.470520,1272.285156 963.534180,1270.564819 947.621155,1269.015991 
	C920.836670,1266.408569 894.936279,1259.639038 869.602051,1250.901489 
	C843.207092,1241.798096 817.838562,1230.179688 794.494812,1214.790283 
	C777.522034,1203.600952 761.309570,1191.250732 744.877747,1179.254272 
	C741.421753,1176.730957 738.488586,1173.491577 735.457764,1170.251831 
	C735.721558,1168.427979 735.842102,1166.934448 735.998291,1165.000000 
	C746.200928,1165.000000 756.662964,1165.000000 767.125061,1165.000000 
	C788.939331,1165.000000 810.753540,1164.994873 832.567810,1165.006470 
	C835.316345,1165.007935 838.193970,1165.280273 837.994995,1161.161621 
	C854.127014,1164.102417 870.153198,1168.177246 886.417969,1169.695435 
	C906.521545,1171.572266 926.819092,1171.581909 947.040771,1171.920776 
	C965.547852,1172.230957 983.740540,1169.185669 1001.982361,1166.242065 
	C1022.666504,1162.904419 1042.817749,1157.660156 1062.518433,1150.862305 
	C1094.133423,1139.953491 1123.903687,1125.067017 1151.263184,1105.781738 
	C1169.926880,1092.626099 1187.594116,1078.127075 1203.107422,1061.259399 
	C1209.985840,1053.780640 1216.318115,1045.799561 1223.950806,1038.491089 
	C1223.626465,1039.509644 1223.491333,1040.643921 1222.949341,1041.529297 
	C1214.165649,1055.876953 1204.538696,1069.595947 1192.804443,1081.737549 
	C1184.725586,1090.096802 1177.171997,1099.037476 1168.522339,1106.752686 
	C1156.985962,1117.042725 1145.119019,1127.119141 1132.463989,1135.955078 
	C1118.864380,1145.450684 1104.601929,1154.199829 1089.889526,1161.853882 
	C1064.126831,1175.256958 1036.817261,1184.921875 1008.358948,1190.853760 
	C995.201172,1193.596436 981.822937,1195.670288 968.439087,1196.838867 
	C952.450012,1198.235107 936.351868,1198.745972 920.293762,1198.905396 
	C895.303833,1199.153442 870.693909,1195.608154 846.455261,1189.654663 
	C834.858459,1186.806152 823.387268,1183.445923 811.448120,1181.057739 
	C822.005432,1186.387695 832.538452,1191.766235 843.124939,1197.037598 
	C865.459900,1208.158447 888.864380,1216.537109 913.056335,1222.342041 
	C928.815308,1226.123413 945.000977,1228.108765 960.971130,1231.031494 
	C984.588074,1235.353638 1008.480957,1234.778809 1032.201172,1233.692627 
	C1051.025635,1232.830322 1069.812256,1229.707764 1088.452393,1226.607300 
	C1113.156128,1222.498291 1136.745972,1214.293823 1159.988892,1205.098267 
	C1182.132568,1196.337646 1203.098389,1185.286499 1223.032349,1172.332886 
	C1240.318481,1161.099976 1256.911499,1148.908203 1271.867676,1134.616333 
	C1277.135986,1129.582153 1282.586914,1124.738892 1288.385376,1120.114502 
	C1288.747192,1121.814209 1288.678345,1123.208008 1288.571289,1125.373657 
	C1294.671631,1124.911987 1300.366943,1124.480957 1306.062378,1124.049927 
z"/>
<path fill="#37B149" opacity="1.000000" stroke="none" 
	d="
M723.943176,603.902527 
	C733.000916,595.719055 741.722046,587.118958 751.203247,579.459717 
	C762.547424,570.295532 774.193909,561.412659 786.335022,553.349976 
	C804.428284,541.334595 823.225708,530.373779 843.675720,522.754028 
	C862.033997,515.913635 880.326721,508.664459 899.147339,503.369293 
	C914.977844,498.915436 931.451965,496.497955 947.780640,494.147461 
	C960.468079,492.321136 973.355164,491.572540 986.181335,491.103271 
	C999.850647,490.603149 1013.621948,490.110931 1027.225830,491.179718 
	C1056.009888,493.441101 1084.345337,498.524506 1112.093262,506.855408 
	C1137.661865,514.531982 1162.143066,524.737854 1185.587036,537.367615 
	C1196.824341,543.421326 1207.493042,550.529663 1218.430298,557.142090 
	C1219.563232,557.827148 1220.771362,558.387817 1221.944458,559.006226 
	C1221.474854,559.690613 1221.005127,560.375061 1220.535400,561.059448 
	C1217.974243,560.177856 1215.332520,559.478455 1212.864746,558.385864 
	C1192.679932,549.448853 1171.452393,543.725403 1149.969727,539.315796 
	C1135.898682,536.427551 1121.423828,535.148376 1107.060303,534.143799 
	C1092.505859,533.125732 1077.828369,532.541321 1063.273804,533.227661 
	C1049.068359,533.897522 1034.735840,535.407898 1020.846069,538.366394 
	C1002.361267,542.303589 984.009766,547.258972 966.036743,553.114685 
	C939.549316,561.744446 914.841309,574.395691 891.679810,589.905457 
	C882.161987,596.278931 872.985962,603.162781 863.338745,609.586182 
	C863.765991,607.442505 864.509033,605.527100 865.489258,603.000000 
	C863.481934,603.000000 861.716919,603.000000 859.951904,603.000000 
	C819.492310,603.000000 779.032471,602.951355 738.573303,603.078735 
	C734.728882,603.090820 730.898438,604.295105 727.038086,604.744751 
	C726.052490,604.859497 724.977234,604.204102 723.943176,603.902527 
z"/>
<path fill="#206199" opacity="1.000000" stroke="none" 
	d="
M623.886414,991.044495 
	C620.253662,975.161377 615.968140,959.391724 613.180298,943.361694 
	C610.626831,928.679688 609.686890,913.716736 608.062378,898.874756 
	C608.013550,898.428345 608.262207,897.949402 608.273560,897.901611 
	C621.343872,897.901611 634.231140,897.785950 647.114868,897.950439 
	C653.554138,898.032593 660.005615,898.426880 666.419006,899.027832 
	C682.790466,900.561951 699.141907,902.308655 715.504517,903.938843 
	C738.559326,906.235840 761.155029,911.097107 783.425049,917.198425 
	C795.567261,920.524963 807.493347,925.047424 818.986389,930.211243 
	C828.644348,934.550598 837.959656,939.987305 846.661499,946.038513 
	C858.720398,954.424377 868.406738,965.114685 871.484314,980.172913 
	C872.269165,984.012695 871.831604,988.102295 871.558167,992.605835 
	C868.671753,996.199219 865.501099,997.077576 861.550476,997.072510 
	C785.510559,996.974548 709.470398,996.992859 633.430298,997.023987 
	C630.146667,997.025330 626.984131,997.341797 626.584106,992.700684 
	C626.530212,992.075745 624.826294,991.593079 623.886414,991.044495 
z"/>
<path fill="#35AC48" opacity="1.000000" stroke="none" 
	d="
M914.412842,691.893311 
	C904.086060,692.691101 894.059204,693.822937 884.023193,693.909790 
	C854.728577,694.163513 825.430298,694.021973 796.133606,693.973328 
	C792.299622,693.966919 788.406067,693.432007 785.987061,698.914246 
	C783.451660,692.885010 778.872375,694.012634 774.694031,694.010254 
	C735.409729,693.988159 696.125366,693.990234 656.363892,693.972656 
	C656.373474,693.060974 656.860168,692.161926 657.943359,691.087646 
	C658.748535,689.954956 658.957275,688.997437 659.166016,688.039978 
	C667.554504,675.095459 675.943115,662.150940 684.818359,649.391479 
	C686.636780,649.971130 687.970398,650.697632 689.299805,650.690125 
	C691.921875,650.675232 694.541321,650.036194 697.162354,650.032715 
	C733.727356,649.984436 770.292480,649.999939 806.857544,650.000000 
	C815.126343,650.000000 815.126343,650.000122 814.041504,658.112427 
	C810.846252,662.415710 807.634033,666.706543 804.470520,671.032959 
	C803.862366,671.864685 803.445496,672.836304 803.616089,674.303711 
	C806.451233,671.988098 809.787476,670.076843 812.037048,667.288757 
	C823.387878,653.220276 837.961731,642.731689 851.521484,631.115479 
	C851.998535,630.706787 852.677795,630.534180 853.795410,630.040588 
	C854.621094,629.684448 854.834167,629.462524 854.967285,629.163879 
	C855.765076,628.497437 856.562927,627.830994 857.924927,627.333923 
	C860.456177,627.668884 862.423096,627.977722 864.390259,627.978943 
	C907.508057,628.006592 950.625977,627.974976 993.743469,628.089172 
	C995.510986,628.093872 997.275085,629.406799 999.040771,630.110229 
	C984.326721,639.243713 969.330444,647.960266 955.000000,657.660522 
	C945.786621,663.896973 937.458923,671.468811 928.915710,678.657959 
	C923.993286,682.800049 919.432251,687.371765 914.412842,691.893311 
M792.202209,687.609009 
	C792.206421,687.214478 792.210693,686.819946 792.214905,686.425415 
	C792.051147,686.423889 791.745117,686.411377 791.744263,686.422424 
	C791.713928,686.815063 791.712219,687.209839 792.202209,687.609009 
M800.168579,677.213318 
	C800.476379,677.162537 800.784180,677.111755 801.091980,677.061035 
	C801.042114,676.835083 800.992310,676.609192 800.942505,676.383240 
	C800.698792,676.456726 800.455017,676.530212 800.168579,677.213318 
z"/>
<path fill="#36AF49" opacity="1.000000" stroke="none" 
	d="
M999.403748,630.053467 
	C997.275085,629.406799 995.510986,628.093872 993.743469,628.089172 
	C950.625977,627.974976 907.508057,628.006592 864.390259,627.978943 
	C862.423096,627.977722 860.456177,627.668884 858.202026,627.185425 
	C876.285400,616.073120 894.152710,604.278809 913.145935,594.721985 
	C940.580750,580.917542 969.747986,571.365173 1000.072937,566.117065 
	C1017.833740,563.043396 1035.773926,560.672607 1053.732666,559.178467 
	C1069.078491,557.901794 1084.620239,557.338562 1099.980225,558.185242 
	C1144.131592,560.619141 1187.143066,569.197632 1227.915894,586.673950 
	C1246.150757,594.490051 1263.548950,604.257996 1281.330444,613.132812 
	C1282.077515,613.505676 1282.860962,613.805481 1283.627441,614.139282 
	C1283.353516,614.630371 1283.079590,615.121399 1282.805664,615.612427 
	C1281.655762,615.612427 1280.379028,615.945740 1279.374634,615.563293 
	C1258.814575,607.736145 1237.646729,601.970032 1216.018066,598.257751 
	C1202.912842,596.008362 1189.547729,595.176758 1176.269165,594.070190 
	C1167.856445,593.369141 1159.377441,592.885132 1150.946899,593.087769 
	C1129.039551,593.614319 1107.248901,595.711853 1085.771606,600.171448 
	C1055.831909,606.388123 1027.116333,616.252502 999.403748,630.053467 
z"/>
<path fill="#35AD48" opacity="1.000000" stroke="none" 
	d="
M1043.395752,689.051331 
	C1042.060669,685.442566 1039.915405,687.453979 1037.973877,688.008545 
	C1035.347412,688.758972 1032.675903,689.903503 1030.019775,689.914734 
	C998.560730,690.047241 967.100647,689.927307 935.641907,690.090820 
	C931.651550,690.111572 928.875854,689.248169 927.197144,685.153381 
	C938.088013,677.248901 949.035583,669.170288 960.514526,661.934875 
	C981.735840,648.558411 1004.809570,639.022766 1028.594971,631.346313 
	C1047.768555,625.158264 1067.427612,621.007751 1087.375366,617.750549 
	C1113.580811,613.471619 1139.912476,613.055908 1166.163208,614.282288 
	C1193.852539,615.575806 1221.403564,619.753357 1247.841675,628.586792 
	C1266.911865,634.958374 1285.639038,642.404297 1304.317261,649.875977 
	C1311.405518,652.711304 1317.928101,656.960449 1324.628906,661.370361 
	C1322.997681,661.370361 1321.271240,661.724060 1319.750244,661.314636 
	C1306.967896,657.873779 1294.352173,653.691711 1281.430786,650.925598 
	C1268.790527,648.219666 1255.893188,646.527954 1243.029175,645.111328 
	C1231.880859,643.883667 1220.593750,642.831421 1209.417603,643.201050 
	C1193.798950,643.717590 1178.172729,645.176880 1162.644897,647.030945 
	C1124.523193,651.582397 1089.087280,664.584045 1055.270752,682.350281 
	C1051.350098,684.409912 1047.587036,686.769531 1043.395752,689.051331 
z"/>
<path fill="#1F5E93" opacity="1.000000" stroke="none" 
	d="
M623.927612,991.447388 
	C624.826294,991.593079 626.530212,992.075745 626.584106,992.700684 
	C626.984131,997.341797 630.146667,997.025330 633.430298,997.023987 
	C709.470398,996.992859 785.510559,996.974548 861.550476,997.072510 
	C865.501099,997.077576 868.671753,996.199219 871.497986,993.066162 
	C871.408508,1003.156067 867.105652,1011.629822 860.445801,1019.054138 
	C844.358643,1036.988281 823.431152,1045.892578 800.505798,1050.926392 
	C784.556091,1054.428589 768.292297,1054.846558 752.139282,1053.817993 
	C733.333069,1052.620361 714.453918,1051.259155 696.134644,1046.152588 
	C695.076904,1045.857666 693.865479,1046.114380 691.237061,1046.114380 
	C694.576721,1047.553833 696.619080,1048.434204 698.701599,1049.955200 
	C697.708191,1053.704468 695.350464,1054.118408 692.440613,1054.039062 
	C677.592896,1053.634277 662.741760,1053.359741 647.891785,1053.039673 
	C642.895569,1041.649780 637.586426,1030.384033 633.005005,1018.829590 
	C629.514282,1010.026245 626.946899,1000.856812 623.927612,991.447388 
z"/>
<path fill="#FFFFFE" opacity="1.000000" stroke="none" 
	d="
M925.243713,1550.262329 
	C930.518250,1542.312134 935.483276,1534.593628 940.609680,1526.984009 
	C941.253235,1526.028687 942.733459,1525.119263 943.851685,1525.087402 
	C950.178833,1524.906616 956.518372,1525.143066 962.844360,1524.942383 
	C966.249023,1524.834351 967.050964,1526.257812 967.044495,1529.397461 
	C966.966003,1567.391357 966.960388,1605.385620 967.050842,1643.379395 
	C967.058899,1646.753906 966.202454,1648.218018 962.565674,1648.066772 
	C956.592651,1647.818115 950.601807,1647.999268 944.271240,1647.999268 
	C944.271240,1621.084106 944.271240,1594.336792 944.271240,1567.589478 
	C943.845581,1567.380127 943.419861,1567.170776 942.994202,1566.961426 
	C930.608521,1585.968506 918.222839,1604.975708 904.876099,1625.457764 
	C891.692139,1605.256348 879.052490,1585.888916 866.062378,1565.984497 
	C866.062378,1593.509033 866.062378,1620.524292 866.062378,1647.767822 
	C858.267944,1647.767822 850.863403,1647.767822 843.228394,1647.767822 
	C843.228394,1606.929810 843.228394,1566.195801 843.228394,1525.000122 
	C851.101929,1525.000122 858.882324,1524.933228 866.658325,1525.086792 
	C867.601685,1525.105347 868.828369,1526.110718 869.406921,1526.996338 
	C879.886108,1543.034546 890.288574,1559.123047 900.698853,1575.206421 
	C901.919983,1577.093140 903.090637,1579.012573 904.694885,1581.570923 
	C911.618469,1570.977295 918.301025,1560.752319 925.243713,1550.262329 
z"/>
<path fill="#1E5A8C" opacity="1.000000" stroke="none" 
	d="
M837.595337,1161.099121 
	C838.193970,1165.280273 835.316345,1165.007935 832.567810,1165.006470 
	C810.753540,1164.994873 788.939331,1165.000000 767.125061,1165.000000 
	C756.662964,1165.000000 746.200928,1165.000000 735.998291,1165.000000 
	C735.842102,1166.934448 735.721558,1168.427979 735.270142,1169.973267 
	C722.153809,1156.413452 709.352173,1142.817139 696.600769,1129.173828 
	C694.695312,1127.135132 693.025635,1124.876221 691.183594,1122.026855 
	C692.416260,1120.948120 693.718689,1120.219360 695.006592,1120.244141 
	C697.960754,1120.300781 700.906677,1120.945923 703.858032,1120.962524 
	C718.166931,1121.043091 732.476562,1120.993286 746.785889,1120.993042 
	C767.884216,1120.992676 788.982483,1120.979614 810.080750,1121.015503 
	C812.778564,1121.020142 814.148010,1119.928467 813.997131,1117.162842 
	C817.721008,1117.788086 821.444885,1118.413452 825.593750,1119.450195 
	C826.561584,1120.526978 827.104370,1121.192383 827.647095,1121.857666 
	C828.429321,1120.959473 829.211548,1120.061279 829.993774,1119.163086 
	C832.723022,1119.454834 835.452209,1119.746460 838.633423,1120.421875 
	C839.748596,1121.433105 840.411865,1122.060669 841.075134,1122.688232 
	C841.714783,1121.846313 842.354431,1121.004395 842.994080,1120.162476 
	C852.022278,1120.453979 861.050415,1120.745483 870.620056,1121.442383 
	C873.060303,1123.656250 874.735107,1123.885742 875.991089,1121.162720 
	C877.386719,1121.121460 878.782288,1121.080200 880.648682,1121.415771 
	C882.076965,1121.582642 883.034607,1121.372681 883.992188,1121.162720 
	C887.648315,1121.103638 891.304504,1121.044434 895.774475,1121.012939 
	C898.056213,1120.748047 899.524109,1120.455444 900.992004,1120.162720 
	C903.725342,1119.805542 906.458679,1119.448486 909.613037,1119.512817 
	C911.282288,1120.611694 912.533081,1121.783936 913.777893,1121.777710 
	C914.504944,1121.774048 915.222473,1119.886963 915.944214,1118.847168 
	C919.356689,1118.246948 922.769226,1117.646606 926.601318,1117.458252 
	C927.550476,1118.522461 928.080078,1119.174683 928.609680,1119.827026 
	C929.072144,1118.938965 929.534607,1118.051025 929.997009,1117.162964 
	C931.736816,1116.788818 933.476685,1116.414795 935.555786,1116.473877 
	C935.276550,1118.790894 934.063660,1121.043091 937.662903,1120.968872 
	C950.380005,1120.707031 963.094177,1120.284424 975.812073,1120.106812 
	C978.913025,1120.063477 982.023804,1120.721680 985.130066,1121.057251 
	C967.899902,1127.806274 950.294739,1133.171997 931.959656,1136.063843 
	C921.436218,1137.723633 911.000305,1139.932861 900.489136,1141.678955 
	C896.106079,1142.406982 891.637085,1142.817017 887.194519,1142.951050 
	C872.266724,1143.401489 857.276184,1144.648926 842.413757,1143.790283 
	C811.699280,1142.015503 781.298706,1137.677856 751.875305,1128.089600 
	C751.594299,1127.998047 751.231750,1128.156738 749.788452,1128.343140 
	C778.369751,1142.569946 807.037476,1153.761963 837.595337,1161.099121 
z"/>
<path fill="#FFFFFE" opacity="1.000000" stroke="none" 
	d="
M1106.870850,1559.000000 
	C1110.604492,1559.518066 1115.735352,1556.791382 1115.105103,1563.842407 
	C1130.020874,1554.297119 1144.064575,1552.924316 1156.912842,1567.217163 
	C1167.897705,1557.390869 1180.679321,1555.170532 1194.643433,1558.001953 
	C1205.269043,1560.156738 1210.067627,1568.180420 1212.810547,1577.403809 
	C1214.450806,1582.919189 1214.823120,1588.951416 1214.907471,1594.763794 
	C1215.162842,1612.376343 1214.999878,1629.994751 1214.999878,1647.795776 
	C1207.193848,1647.795776 1199.789917,1647.795776 1192.003662,1647.795776 
	C1192.003662,1630.476440 1192.211670,1613.353394 1191.842285,1596.243042 
	C1191.760620,1592.452271 1190.380127,1588.213135 1188.280640,1585.056396 
	C1185.291260,1580.561523 1179.030151,1579.501465 1174.062378,1581.413574 
	C1168.288208,1583.635864 1165.016113,1588.097900 1165.008057,1593.928101 
	C1164.985596,1610.257935 1164.889404,1626.589111 1165.081055,1642.916626 
	C1165.126709,1646.812988 1164.099609,1648.304688 1160.028442,1648.080322 
	C1154.233032,1647.760986 1148.406860,1647.999146 1142.244385,1647.999146 
	C1142.156494,1646.392212 1142.011597,1644.958862 1142.010010,1643.525269 
	C1141.993652,1628.028564 1142.173218,1612.529053 1141.910645,1597.036743 
	C1141.811646,1591.200684 1140.716187,1585.379517 1134.695801,1582.190552 
	C1130.493774,1579.964600 1126.097900,1580.004883 1122.044678,1582.073242 
	C1117.909790,1584.183105 1114.950439,1587.442139 1114.973511,1592.656616 
	C1115.045654,1608.986084 1114.883911,1625.317383 1115.072754,1641.645020 
	C1115.127563,1646.383789 1113.873291,1648.611084 1108.677368,1648.091187 
	C1104.223022,1647.645386 1099.685059,1647.891357 1095.190796,1648.037842 
	C1092.325439,1648.131104 1090.940918,1647.344238 1090.951050,1644.139282 
	C1091.036499,1616.978760 1091.024902,1589.817749 1090.963623,1562.657104 
	C1090.957031,1559.760986 1092.189697,1558.870239 1094.894287,1558.965698 
	C1098.722046,1559.100586 1102.557983,1559.000000 1106.870850,1559.000000 
z"/>
<path fill="#35AD48" opacity="1.000000" stroke="none" 
	d="
M814.345154,657.960693 
	C815.126343,650.000122 815.126343,650.000000 806.857544,650.000000 
	C770.292480,649.999939 733.727356,649.984436 697.162354,650.032715 
	C694.541321,650.036194 691.921875,650.675232 689.299805,650.690125 
	C687.970398,650.697632 686.636780,649.971130 685.126282,649.237061 
	C689.345154,643.054443 693.412048,636.921997 698.214355,631.432739 
	C706.344910,622.139221 714.940186,613.252136 723.641602,604.048340 
	C724.977234,604.204102 726.052490,604.859497 727.038086,604.744751 
	C730.898438,604.295105 734.728882,603.090820 738.573303,603.078735 
	C779.032471,602.951355 819.492310,603.000000 859.951904,603.000000 
	C861.716919,603.000000 863.481934,603.000000 865.489258,603.000000 
	C864.509033,605.527100 863.765991,607.442505 863.028442,609.740112 
	C856.596802,615.968750 849.972900,621.624695 843.768188,627.708130 
	C835.328003,635.983276 827.199280,644.576599 818.958618,653.054565 
	C817.468628,654.587402 816.082703,656.221497 814.345154,657.960693 
z"/>
<path fill="#1F5E92" opacity="1.000000" stroke="none" 
	d="
M647.951050,1053.400513 
	C662.741760,1053.359741 677.592896,1053.634277 692.440613,1054.039062 
	C695.350464,1054.118408 697.708191,1053.704468 698.895874,1050.249268 
	C699.927124,1050.048828 700.804260,1050.195068 701.748779,1050.905762 
	C701.822266,1052.166504 701.828369,1052.862671 701.834473,1053.558960 
	C702.587646,1053.022217 703.340820,1052.485474 704.093994,1051.948730 
	C714.789612,1055.006104 725.372009,1058.568359 736.208130,1060.999512 
	C751.531067,1064.437256 767.157715,1066.561768 782.404480,1070.274780 
	C787.332031,1071.474731 791.903076,1070.417847 796.520874,1071.099121 
	C810.935425,1073.225220 825.413147,1072.174438 839.803101,1071.817871 
	C866.498169,1071.156250 892.768677,1066.991577 918.557800,1059.771729 
	C954.058350,1049.833374 986.908691,1034.469727 1016.624817,1012.620361 
	C1023.243408,1007.753906 1029.307739,1002.134216 1035.645386,996.883118 
	C1036.105835,996.501587 1036.713623,996.297668 1037.453857,995.904480 
	C1033.283447,1014.297241 969.897339,1059.363892 923.254822,1077.066040 
	C922.372925,1077.317261 922.162964,1077.537842 922.031677,1077.833252 
	C912.970886,1080.561768 903.910034,1083.290283 894.195984,1085.756348 
	C889.959351,1084.995850 886.380127,1084.105713 882.791992,1084.068237 
	C867.472595,1083.908203 852.150574,1084.000000 836.829468,1084.000000 
	C799.525940,1084.000000 762.222412,1083.987549 724.918945,1084.029663 
	C722.604797,1084.032227 719.619690,1083.059692 719.000854,1086.832520 
	C718.113892,1086.778564 717.226868,1086.724609 716.116333,1086.043213 
	C714.521667,1084.635376 713.150574,1083.854980 710.608765,1082.408325 
	C711.472839,1084.620483 711.761475,1085.359497 712.050110,1086.098511 
	C712.627441,1086.532471 713.204773,1086.966431 713.714722,1087.917480 
	C712.395813,1088.234619 710.439026,1088.471680 710.002686,1087.767090 
	C705.904724,1081.151123 699.730774,1083.976929 694.165405,1083.994873 
	C684.408325,1084.026123 674.651062,1084.026611 664.893921,1084.040039 
	C660.308167,1076.167480 655.683411,1068.317139 651.162415,1060.407471 
	C649.949158,1058.284912 649.052368,1055.981689 647.951050,1053.400513 
z"/>
<path fill="#FFFFFE" opacity="1.000000" stroke="none" 
	d="
M421.999847,1531.090942 
	C421.999847,1528.950317 421.999847,1527.297729 421.999847,1525.322998 
	C429.560883,1525.322998 436.967163,1525.322998 444.745575,1525.322998 
	C444.745575,1539.236450 444.745575,1553.313110 444.745575,1568.334839 
	C446.420044,1566.841919 447.477173,1565.986938 448.434814,1565.032349 
	C460.826965,1552.679565 473.135315,1540.241089 485.670349,1528.035278 
	C487.323669,1526.425049 490.084991,1525.224731 492.383820,1525.135132 
	C501.029510,1524.798462 509.696075,1525.000000 519.981934,1525.000000 
	C518.426697,1527.605957 517.660583,1529.725708 516.220398,1531.175659 
	C497.900116,1549.619385 479.483002,1567.967041 460.889618,1586.539795 
	C471.090668,1596.690308 481.245422,1606.749023 491.347687,1616.860229 
	C501.204163,1626.725586 511.137604,1636.523315 520.892029,1646.485596 
	C520.533264,1646.989990 520.174500,1647.494263 519.815735,1647.998657 
	C509.890076,1647.998657 499.962555,1648.091675 490.041016,1647.889893 
	C488.684998,1647.862305 487.136749,1646.589478 486.052551,1645.514893 
	C472.572388,1632.153809 459.161621,1618.722656 445.276978,1604.854004 
	C445.276978,1619.332520 445.276978,1633.348877 445.276978,1647.680908 
	C437.447571,1647.680908 430.039886,1647.680908 421.999847,1647.680908 
	C421.999847,1609.085571 421.999847,1570.332275 421.999847,1531.090942 
z"/>
<path fill="#FFFFFE" opacity="1.000000" stroke="none" 
	d="
M1240.193604,1573.309204 
	C1251.597412,1560.583618 1265.794434,1555.526978 1282.113525,1557.124512 
	C1295.054321,1558.391235 1305.952515,1563.793457 1314.333374,1574.509399 
	C1322.644409,1585.135986 1324.689941,1596.965088 1323.958740,1609.776489 
	C1323.868042,1611.364746 1323.226196,1612.921631 1322.721069,1614.975952 
	C1301.028442,1614.975952 1279.140015,1614.975952 1256.384277,1614.975952 
	C1260.550171,1621.141113 1265.412842,1625.210083 1271.882568,1625.804077 
	C1277.132935,1626.286133 1282.535645,1624.964111 1287.882202,1624.614868 
	C1289.875854,1624.484863 1292.053711,1624.415039 1293.882935,1625.063843 
	C1298.864746,1626.830811 1303.674194,1629.076782 1308.611206,1630.979004 
	C1312.837524,1632.607422 1313.182251,1634.042236 1310.033203,1637.448730 
	C1304.572754,1643.355591 1297.649902,1646.712646 1290.000244,1648.472778 
	C1271.794678,1652.661865 1255.533325,1649.134766 1242.080200,1635.556519 
	C1229.543213,1622.902954 1226.130493,1599.696899 1233.944580,1584.454956 
	C1235.833252,1580.771118 1237.942505,1577.200562 1240.193604,1573.309204 
M1294.744873,1591.999512 
	C1298.653931,1591.364014 1295.759888,1589.516357 1295.098145,1588.735962 
	C1288.928833,1581.460327 1279.572021,1578.913208 1269.863159,1581.637695 
	C1264.278931,1583.204712 1259.786011,1586.224609 1257.097534,1592.000000 
	C1269.676147,1592.000000 1281.781494,1592.000000 1294.744873,1591.999512 
z"/>
<path fill="#FFFFFE" opacity="1.000000" stroke="none" 
	d="
M753.358154,1590.863037 
	C748.409973,1584.003906 741.737000,1580.927002 733.971313,1580.062744 
	C726.190491,1579.197144 715.580078,1586.420532 711.624634,1594.846313 
	C708.341614,1601.839600 710.088623,1612.727173 715.697998,1618.382446 
	C722.897217,1625.640381 731.128906,1628.071655 740.792786,1625.555542 
	C743.293457,1624.904419 744.204895,1625.176270 745.063171,1627.576782 
	C746.678284,1632.094727 748.671143,1636.476318 750.450867,1640.937012 
	C752.201965,1645.326172 751.216309,1646.693359 746.584167,1648.050659 
	C733.837280,1651.785522 721.283142,1651.084473 709.745728,1644.800537 
	C695.502808,1637.043335 687.874207,1624.421387 687.065491,1608.119995 
	C686.653625,1599.818237 687.004211,1591.654541 690.562988,1583.681885 
	C696.262817,1570.912842 705.137268,1562.208496 718.769531,1558.665894 
	C732.067078,1555.210449 744.792419,1556.395874 756.985657,1563.787231 
	C756.398560,1559.948486 758.086792,1558.740356 761.703430,1558.931152 
	C766.853210,1559.202759 772.030334,1559.091675 777.191284,1558.963013 
	C779.962708,1558.894043 781.042847,1559.918213 781.036377,1562.740967 
	C780.975098,1589.561035 780.994141,1616.381348 781.007202,1643.201538 
	C781.008850,1646.502686 779.943054,1648.319946 776.128113,1648.071167 
	C771.483521,1647.768188 766.778748,1647.697632 762.146912,1648.085449 
	C757.691711,1648.458496 756.851807,1646.558228 756.923279,1642.591431 
	C757.135986,1630.767700 757.337402,1618.923584 756.847595,1607.116455 
	C756.625000,1601.748779 754.764038,1596.449341 753.358154,1590.863037 
z"/>
<path fill="#FFFFFE" opacity="1.000000" stroke="none" 
	d="
M644.743896,1629.666992 
	C640.467590,1638.715942 636.346313,1647.415039 632.377930,1656.183228 
	C624.676086,1673.200439 612.154968,1682.621460 592.867188,1682.052124 
	C582.830994,1681.755859 582.817627,1681.998657 585.012085,1672.458130 
	C585.408264,1670.735474 585.852966,1669.023071 586.318176,1667.317627 
	C588.409424,1659.650513 588.414978,1659.651855 596.688599,1658.999146 
	C605.600281,1658.296021 611.546936,1648.252563 607.839539,1640.440552 
	C596.140869,1615.789917 584.517395,1591.103516 572.920959,1566.404663 
	C571.921082,1564.275146 571.335510,1561.951172 570.307678,1559.000488 
	C578.705933,1559.000488 586.316345,1558.793213 593.895935,1559.183838 
	C595.327942,1559.257568 597.154480,1561.464478 597.923950,1563.098999 
	C606.052551,1580.367554 614.001831,1597.720703 622.009827,1615.046143 
	C622.412415,1615.917236 622.900574,1616.748657 623.636108,1618.142822 
	C630.870544,1602.475952 637.949707,1587.145142 645.029297,1571.814453 
	C645.097473,1571.666870 645.177917,1571.524292 645.237915,1571.373657 
	C650.167175,1559.000000 650.167053,1559.000000 663.611511,1559.000000 
	C667.592896,1559.000000 671.574280,1559.000000 676.478088,1559.000000 
	C675.555237,1561.971313 675.050293,1564.579224 673.969849,1566.921875 
	C664.360474,1587.757446 654.649231,1608.546143 644.743896,1629.666992 
z"/>
<path fill="#FFFFFE" opacity="1.000000" stroke="none" 
	d="
M1030.915894,1557.000000 
	C1052.992920,1556.940186 1071.931396,1573.554199 1075.095215,1594.912354 
	C1077.432739,1610.692017 1074.067505,1624.631592 1063.151001,1636.227905 
	C1050.592407,1649.568726 1034.496338,1652.790771 1017.407471,1648.809082 
	C993.603333,1643.262695 978.478394,1621.109985 982.204651,1596.316650 
	C985.504883,1574.358276 1005.239807,1555.103149 1030.915894,1557.000000 
M1050.081787,1593.568237 
	C1045.697266,1584.384399 1037.663330,1579.793091 1028.261719,1580.354248 
	C1019.185059,1580.896240 1010.874634,1584.700806 1007.416992,1594.917236 
	C1004.516968,1603.485962 1005.106689,1611.287720 1010.836487,1618.231201 
	C1017.671021,1626.513428 1027.368530,1628.731812 1036.686523,1625.414429 
	C1049.002319,1621.029663 1056.738525,1608.412842 1050.081787,1593.568237 
z"/>
<path fill="#FFFFFE" opacity="1.000000" stroke="none" 
	d="
M1339.000000,1565.088135 
	C1339.000000,1562.946655 1339.000000,1561.293701 1339.000000,1559.320557 
	C1346.552002,1559.320557 1353.962280,1559.320557 1361.876587,1559.320557 
	C1361.935791,1560.527832 1362.004761,1561.935913 1362.089600,1563.664551 
	C1362.701538,1563.424683 1363.251709,1563.296509 1363.709106,1563.016968 
	C1377.181030,1554.781860 1390.896729,1554.573975 1404.700806,1562.002563 
	C1415.221924,1567.664185 1421.740356,1577.425415 1422.579956,1588.436157 
	C1424.073608,1608.022339 1422.999756,1627.804321 1422.999756,1647.754639 
	C1416.296143,1647.754639 1408.891968,1647.754639 1401.000000,1647.754639 
	C1401.000000,1632.757812 1401.101807,1617.817505 1400.962524,1602.879395 
	C1400.876587,1593.658569 1397.796753,1585.961060 1388.698730,1581.943604 
	C1377.625977,1577.053833 1363.371582,1584.593506 1363.096313,1596.706299 
	C1362.712646,1613.587646 1362.999634,1630.484253 1362.999634,1647.687378 
	C1354.436401,1647.687378 1347.029419,1647.687378 1339.000000,1647.687378 
	C1339.000000,1620.412720 1339.000000,1592.994629 1339.000000,1565.088135 
z"/>
<path fill="#FFFFFE" opacity="1.000000" stroke="none" 
	d="
M1502.177246,1572.504517 
	C1508.249756,1561.759277 1517.328125,1557.257935 1529.120483,1556.915039 
	C1540.545288,1556.582886 1550.891602,1559.012817 1560.143799,1565.968140 
	C1565.417358,1569.932495 1565.518433,1573.199951 1560.140015,1577.023071 
	C1558.145752,1578.440796 1556.397461,1580.219482 1554.613281,1581.913818 
	C1552.926147,1583.515747 1551.338989,1585.223145 1549.560547,1587.033691 
	C1546.880493,1585.044434 1544.433472,1582.968262 1541.740723,1581.285522 
	C1536.697021,1578.133667 1531.306274,1577.867188 1526.033081,1580.581421 
	C1524.712524,1581.260986 1523.297607,1583.082886 1523.224854,1584.449219 
	C1523.164551,1585.580078 1524.787720,1587.284302 1526.067749,1587.908325 
	C1529.358032,1589.512451 1532.769653,1591.137329 1536.316284,1591.894531 
	C1546.132935,1593.990234 1554.364502,1598.581299 1561.342773,1605.780518 
	C1571.430054,1616.186890 1568.112915,1638.553955 1555.179688,1645.305054 
	C1538.350342,1654.089844 1522.369507,1650.862549 1506.949219,1641.433594 
	C1506.393066,1641.093384 1506.012451,1640.472656 1505.466064,1640.108765 
	C1499.697144,1636.268433 1499.638916,1635.861206 1504.323486,1631.170532 
	C1507.264160,1628.225830 1510.365845,1625.421997 1513.099243,1622.296143 
	C1515.544800,1619.499634 1517.267090,1619.580933 1519.890869,1622.256592 
	C1524.872803,1627.337524 1531.207520,1629.415894 1538.184448,1627.841675 
	C1540.337158,1627.355957 1542.068848,1625.004517 1543.993408,1623.507446 
	C1542.409302,1621.679199 1541.177002,1619.006714 1539.177979,1618.174072 
	C1531.823242,1615.110107 1523.894287,1613.303223 1516.790649,1609.791260 
	C1509.659424,1606.265503 1502.894043,1601.358887 1500.680664,1593.037598 
	C1498.898071,1586.336182 1499.614746,1579.464966 1502.177246,1572.504517 
z"/>
<path fill="#FFFFFE" opacity="1.000000" stroke="none" 
	d="
M1482.907471,1625.784790 
	C1484.960205,1633.157715 1486.931641,1640.094971 1489.239502,1648.215820 
	C1475.465088,1646.860229 1462.315674,1651.416504 1450.925903,1642.929199 
	C1443.012451,1637.032104 1438.066162,1629.156494 1438.028076,1618.953247 
	C1437.939575,1595.287842 1438.062622,1571.621338 1437.941040,1547.956177 
	C1437.919556,1543.774902 1438.621704,1541.273682 1443.565796,1540.639404 
	C1449.269775,1539.907471 1454.828003,1538.038330 1461.000000,1536.528320 
	C1461.000000,1546.233276 1461.231323,1555.375488 1460.900879,1564.497314 
	C1460.739258,1568.960083 1462.177002,1570.581421 1466.557983,1570.048950 
	C1468.843140,1569.771240 1471.190063,1570.000000 1473.947144,1570.000000 
	C1475.364258,1576.546387 1476.645752,1582.992188 1478.192749,1589.373657 
	C1478.888306,1592.243042 1477.837891,1593.067017 1475.208374,1593.016602 
	C1471.709839,1592.949341 1468.180298,1592.744019 1464.723633,1593.130493 
	C1463.398804,1593.278809 1461.168335,1594.899170 1461.171875,1595.841797 
	C1461.200317,1603.407227 1461.482788,1610.984985 1462.063721,1618.530029 
	C1462.411499,1623.047363 1465.751953,1624.763184 1469.889648,1624.976440 
	C1474.196655,1625.198364 1478.513550,1625.232666 1482.907471,1625.784790 
z"/>
<path fill="#1E5C8E" opacity="1.000000" stroke="none" 
	d="
M664.950684,1084.395752 
	C674.651062,1084.026611 684.408325,1084.026123 694.165405,1083.994873 
	C699.730774,1083.976929 705.904724,1081.151123 710.002686,1087.767090 
	C710.439026,1088.471680 712.395813,1088.234619 713.850464,1088.170166 
	C727.374329,1092.965576 740.441040,1098.897583 754.078796,1102.868408 
	C771.936890,1108.067871 790.245056,1111.722046 808.362244,1116.030029 
	C809.951599,1116.408081 811.560059,1116.705444 813.578369,1117.101562 
	C814.148010,1119.928467 812.778564,1121.020142 810.080750,1121.015503 
	C788.982483,1120.979614 767.884216,1120.992676 746.785889,1120.993042 
	C732.476562,1120.993286 718.166931,1121.043091 703.858032,1120.962524 
	C700.906677,1120.945923 697.960754,1120.300781 695.006592,1120.244141 
	C693.718689,1120.219360 692.416260,1120.948120 691.039307,1121.721436 
	C682.307983,1109.656006 673.657715,1097.203857 664.950684,1084.395752 
z"/>
<path fill="#1E5C8E" opacity="1.000000" stroke="none" 
	d="
M985.499634,1121.009521 
	C982.023804,1120.721680 978.913025,1120.063477 975.812073,1120.106812 
	C963.094177,1120.284424 950.380005,1120.707031 937.662903,1120.968872 
	C934.063660,1121.043091 935.276550,1118.790894 935.948853,1116.535645 
	C942.826965,1114.535522 949.685669,1113.037231 956.467468,1111.247681 
	C966.447937,1108.613770 976.641724,1106.485229 986.264832,1102.865601 
	C1004.395813,1096.045776 1022.576599,1089.130127 1040.006348,1080.737427 
	C1057.803101,1072.167969 1074.242065,1061.027710 1089.321289,1048.131958 
	C1098.610840,1040.187378 1107.596436,1031.887573 1116.739380,1023.770630 
	C1117.503906,1023.091980 1118.427734,1022.592957 1119.741211,1022.657227 
	C1084.714966,1068.454102 1039.473511,1100.378662 985.499634,1121.009521 
z"/>
<path fill="#1F5E92" opacity="1.000000" stroke="none" 
	d="
M1306.044312,1124.038574 
	C1300.366943,1124.480957 1294.671631,1124.911987 1288.571289,1125.373657 
	C1288.678345,1123.208008 1288.747192,1121.814209 1288.707153,1120.016113 
	C1288.598145,1119.611816 1288.651001,1119.591309 1289.055176,1119.700928 
	C1290.291016,1118.505249 1291.122681,1117.199951 1291.954468,1115.894653 
	C1307.061646,1098.896484 1321.216187,1081.160522 1333.520874,1062.004150 
	C1351.402710,1034.165771 1365.539673,1004.550476 1374.006836,972.528198 
	C1378.731689,954.659241 1382.123169,936.431274 1385.861084,918.312683 
	C1386.754028,913.984680 1386.546509,909.437927 1387.025879,905.011414 
	C1387.176025,903.624878 1387.917969,902.302551 1388.942993,901.277710 
	C1388.942993,906.738831 1389.511230,912.272034 1388.829102,917.646484 
	C1387.217896,930.341919 1385.396240,943.037109 1382.937622,955.591003 
	C1380.514038,967.966125 1377.489990,980.244690 1374.218506,992.428467 
	C1367.622437,1016.993774 1358.019287,1040.445801 1345.900757,1062.755615 
	C1338.451660,1076.469360 1329.986572,1089.650757 1321.574219,1102.813477 
	C1317.214722,1109.634644 1311.977417,1115.895020 1306.789551,1122.841064 
	C1306.214233,1123.488892 1306.077637,1123.752197 1306.032715,1124.063110 
	C1306.032715,1124.063110 1306.026245,1124.027222 1306.044312,1124.038574 
z"/>
<path fill="#FFFFFE" opacity="1.000000" stroke="none" 
	d="
M558.000122,1581.000244 
	C558.000122,1601.983765 557.906006,1622.468140 558.082214,1642.950195 
	C558.116089,1646.885132 557.028442,1648.296753 553.000305,1648.078735 
	C547.211853,1647.765503 541.393860,1647.999023 535.295166,1647.999023 
	C535.295166,1618.363403 535.295166,1588.977173 535.295166,1559.001709 
	C541.780151,1559.001709 548.383240,1558.821045 554.956665,1559.181641 
	C556.037964,1559.241089 557.782959,1561.631836 557.861572,1563.022095 
	C558.190063,1568.832153 558.000061,1574.671631 558.000122,1581.000244 
z"/>
<path fill="#1E5C8E" opacity="1.000000" stroke="none" 
	d="
M719.343628,1087.020508 
	C719.619690,1083.059692 722.604797,1084.032227 724.918945,1084.029663 
	C762.222412,1083.987549 799.525940,1084.000000 836.829468,1084.000000 
	C852.150574,1084.000000 867.472595,1083.908203 882.791992,1084.068237 
	C886.380127,1084.105713 889.959351,1084.995850 893.794495,1085.796143 
	C882.277893,1088.728882 870.604736,1091.951660 858.720642,1093.862427 
	C836.170898,1097.488037 813.371155,1098.998657 790.559631,1097.876465 
	C766.625977,1096.699219 742.798706,1094.155273 719.343628,1087.020508 
z"/>
<path fill="#FFFFFE" opacity="1.000000" stroke="none" 
	d="
M544.024170,1548.000000 
	C540.885925,1548.000000 538.240295,1548.000000 535.297974,1548.000000 
	C535.297974,1540.410400 535.297974,1533.007202 535.297974,1525.300293 
	C542.584717,1525.300293 549.988037,1525.300293 557.988464,1525.300293 
	C557.988464,1531.928345 558.117493,1538.691528 557.834229,1545.437500 
	C557.796509,1546.336548 555.731812,1547.753296 554.496277,1547.882446 
	C551.201599,1548.226685 547.847290,1547.999878 544.024170,1548.000000 
z"/>
<path fill="#1E5C8E" opacity="1.000000" stroke="none" 
	d="
M915.523438,1118.906982 
	C915.222473,1119.886963 914.504944,1121.774048 913.777893,1121.777710 
	C912.533081,1121.783936 911.282288,1120.611694 910.018677,1119.549072 
	C911.703064,1119.098145 913.402893,1119.032471 915.523438,1118.906982 
z"/>
<path fill="#1E5C8E" opacity="1.000000" stroke="none" 
	d="
M712.440308,1086.062256 
	C711.761475,1085.359497 711.472839,1084.620483 710.608765,1082.408325 
	C713.150574,1083.854980 714.521667,1084.635376 715.927063,1085.761719 
	C714.917725,1086.080444 713.874084,1086.053223 712.440308,1086.062256 
z"/>
<path fill="#1E5C8E" opacity="1.000000" stroke="none" 
	d="
M829.597412,1119.102539 
	C829.211548,1120.061279 828.429321,1120.959473 827.647095,1121.857666 
	C827.104370,1121.192383 826.561584,1120.526978 826.010864,1119.511963 
	C827.068970,1119.122192 828.135010,1119.082031 829.597412,1119.102539 
z"/>
<path fill="#1E5C8E" opacity="1.000000" stroke="none" 
	d="
M875.578796,1121.102173 
	C874.735107,1123.885742 873.060303,1123.656250 871.085449,1121.504883 
	C872.395142,1121.121826 873.780823,1121.081665 875.578796,1121.102173 
z"/>
<path fill="#1E5C8E" opacity="1.000000" stroke="none" 
	d="
M842.597900,1120.102173 
	C842.354431,1121.004395 841.714783,1121.846313 841.075134,1122.688232 
	C840.411865,1122.060669 839.748596,1121.433105 839.045837,1120.484131 
	C840.071472,1120.122437 841.136597,1120.082153 842.597900,1120.102173 
z"/>
<path fill="#1E5C8E" opacity="1.000000" stroke="none" 
	d="
M929.625061,1117.103271 
	C929.534607,1118.051025 929.072144,1118.938965 928.609680,1119.827026 
	C928.080078,1119.174683 927.550476,1118.522461 927.011963,1117.516357 
	C927.753052,1117.123047 928.503052,1117.083252 929.625061,1117.103271 
z"/>
<path fill="#1E5C8E" opacity="1.000000" stroke="none" 
	d="
M900.601196,1120.102905 
	C899.524109,1120.455444 898.056213,1120.748047 896.226685,1120.994995 
	C897.313538,1120.647217 898.761963,1120.345093 900.601196,1120.102905 
z"/>
<path fill="#1D5887" opacity="1.000000" stroke="none" 
	d="
M1291.662109,1116.037720 
	C1291.122681,1117.199951 1290.291016,1118.505249 1289.082397,1119.693237 
	C1289.593628,1118.444214 1290.481689,1117.312500 1291.662109,1116.037720 
z"/>
<path fill="#1E5C8E" opacity="1.000000" stroke="none" 
	d="
M883.621460,1121.103027 
	C883.034607,1121.372681 882.076965,1121.582642 881.063843,1121.477539 
	C881.755798,1121.122681 882.503296,1121.083008 883.621460,1121.103027 
z"/>
<path fill="#1F5E93" opacity="1.000000" stroke="none" 
	d="
M703.941223,1051.682373 
	C703.340820,1052.485474 702.587646,1053.022217 701.834473,1053.558960 
	C701.828369,1052.862671 701.822266,1052.166504 701.931885,1051.187378 
	C702.627869,1051.074951 703.208130,1051.245483 703.941223,1051.682373 
z"/>
<path fill="#33A948" opacity="1.000000" stroke="none" 
	d="
M659.009766,688.327026 
	C658.957275,688.997437 658.748535,689.954956 658.213135,690.935547 
	C658.208862,690.177124 658.531189,689.395630 659.009766,688.327026 
z"/>
<path fill="#1D5887" opacity="1.000000" stroke="none" 
	d="
M1306.257080,1123.968994 
	C1306.077637,1123.752197 1306.214233,1123.488892 1306.629883,1123.148926 
	C1306.910645,1123.389038 1306.798584,1123.672485 1306.257080,1123.968994 
z"/>
<path fill="#1E5C8E" opacity="1.000000" stroke="none" 
	d="
M922.280273,1077.828125 
	C922.162964,1077.537842 922.372925,1077.317261 922.884705,1077.106445 
	C923.027588,1077.385498 922.834534,1077.645996 922.280273,1077.828125 
z"/>
<path fill="#36AF49" opacity="1.000000" stroke="none" 
	d="
M854.714600,629.165955 
	C854.834167,629.462524 854.621094,629.684448 854.103271,629.898254 
	C854.072998,629.700562 854.267517,629.434326 854.714600,629.165955 
z"/>
<path fill="#000000" opacity="1.000000" stroke="none" 
	d="
M992.602356,730.560730 
	C992.865051,730.287109 993.286621,730.267395 993.708252,730.247681 
	C993.392639,730.436707 993.076965,730.625671 992.602356,730.560730 
z"/>
<path fill="#33A948" opacity="1.000000" stroke="none" 
	d="
M791.954346,687.606689 
	C791.712219,687.209839 791.713928,686.815063 791.744263,686.422424 
	C791.745117,686.411377 792.051147,686.423889 792.214905,686.425415 
	C792.210693,686.819946 792.206421,687.214478 791.954346,687.606689 
z"/>
<path fill="#000000" opacity="1.000000" stroke="none" 
	d="
M800.189941,676.908447 
	C800.455017,676.530212 800.698792,676.456726 800.942505,676.383240 
	C800.992310,676.609192 801.042114,676.835083 801.091980,677.061035 
	C800.784180,677.111755 800.476379,677.162537 800.189941,676.908447 
z"/>
<path fill="#000000" opacity="1.000000" stroke="none" 
	d="
M1294.315918,1591.999756 
	C1281.781494,1592.000000 1269.676147,1592.000000 1257.097534,1592.000000 
	C1259.786011,1586.224609 1264.278931,1583.204712 1269.863159,1581.637695 
	C1279.572021,1578.913208 1288.928833,1581.460327 1295.098145,1588.735962 
	C1295.759888,1589.516357 1298.653931,1591.364014 1294.315918,1591.999756 
z"/>
<path fill="#000000" opacity="1.000000" stroke="none" 
	d="
M1050.366455,1593.845337 
	C1056.738525,1608.412842 1049.002319,1621.029663 1036.686523,1625.414429 
	C1027.368530,1628.731812 1017.671021,1626.513428 1010.836487,1618.231201 
	C1005.106689,1611.287720 1004.516968,1603.485962 1007.416992,1594.917236 
	C1010.874634,1584.700806 1019.185059,1580.896240 1028.261719,1580.354248 
	C1037.663330,1579.793091 1045.697266,1584.384399 1050.366455,1593.845337 
z"/>
</svg>