<svg version="1.1" id="Layer_1" xmlns="http://www.w3.org/2000/svg" xmlns:xlink="http://www.w3.org/1999/xlink" x="0px" y="0px"
	 width="100%" viewBox="0 0 1024 1024" enable-background="new 0 0 1024 1024" xml:space="preserve">
<path fill="#000000" opacity="1.000000" stroke="none" 
	d="
M477.644775,348.544464 
	C545.446533,299.498413 633.579590,310.256561 678.255127,339.309906 
	C616.019165,321.102203 560.273254,329.175323 511.492004,371.654053 
	C537.775024,353.381012 567.264587,343.995667 598.983521,341.991486 
	C630.635864,339.991394 660.896362,345.819641 689.790588,360.563507 
	C687.692810,362.342773 686.441406,361.404144 685.276550,361.036530 
	C669.565063,356.078369 653.408875,353.680817 637.026917,354.499512 
	C618.901978,355.405334 602.416626,361.324677 589.247559,374.413788 
	C573.586853,389.979370 575.346252,408.781097 593.413818,421.493195 
	C609.069885,432.508545 627.060730,437.202576 645.490662,440.616425 
	C665.177429,444.263123 685.065186,445.764069 705.076294,445.842682 
	C707.114807,445.850677 709.409912,445.116577 711.663940,447.412140 
	C708.244934,451.118500 704.050842,453.744049 700.115784,456.632111 
	C681.619812,470.206818 660.643799,477.039001 638.008179,479.283081 
	C598.607544,483.189331 562.546509,471.985901 527.982666,454.562927 
	C509.252472,445.121368 491.105865,434.520447 471.309143,427.277802 
	C438.160858,415.150513 404.306061,409.900909 369.339691,417.325165 
	C350.224823,421.383789 332.592194,429.093781 317.135284,441.334564 
	C315.876556,442.331421 314.745728,443.699188 311.932312,443.581360 
	C312.633789,424.586182 315.908905,406.143646 322.022034,388.233734 
	C338.169739,340.925446 367.714325,304.328918 410.721222,278.846619 
	C485.610168,234.473724 574.409607,249.032852 624.119202,286.555176 
	C545.231323,258.564728 477.143036,274.964813 419.940247,335.720947 
	C452.976593,307.371338 491.211365,290.823120 534.732727,286.762756 
	C578.063416,282.720215 618.337341,292.075439 655.742126,313.677979 
	C655.600891,314.261414 655.459595,314.844849 655.318298,315.428314 
	C650.649109,314.004791 646.023804,312.412659 641.304077,311.183411 
	C583.279114,296.070709 530.140503,305.681274 482.492310,342.760559 
	C480.399719,344.388977 478.589844,346.381073 476.654449,348.210266 
	C476.540344,348.318115 476.381226,348.515289 476.412964,348.618835 
	C476.672821,349.466187 477.078918,348.784088 477.644775,348.544464 
z"/>
<path fill="#000000" opacity="1.000000" stroke="none" 
	d="
M332.891113,459.759155 
	C362.111115,461.977081 390.768951,464.615082 417.839081,475.653839 
	C426.401672,479.145477 434.326782,483.649048 440.580750,490.652466 
	C449.961273,501.157227 449.597046,514.270691 439.460449,524.109863 
	C430.267303,533.033203 418.876434,537.394165 406.421295,539.308777 
	C390.898468,541.695007 375.552673,539.592896 360.215057,537.390137 
	C374.162140,546.644836 417.474548,551.899780 448.716492,547.487793 
	C479.080719,543.199768 506.656860,532.096008 530.533020,510.660431 
	C526.242676,525.291321 485.120605,550.366516 455.932617,557.452271 
	C426.603485,564.572327 397.329193,564.344788 368.122894,558.151794 
	C442.053864,585.704468 510.730988,579.709106 571.813110,525.838074 
	C569.471069,539.778320 519.940674,572.020386 488.941650,579.930908 
	C455.488708,588.467529 422.155762,588.439026 388.767700,579.707214 
	C428.942261,599.516479 471.116882,605.323242 515.096863,597.204834 
	C559.160828,589.070923 596.342773,568.627563 625.487427,533.106750 
	C623.041016,552.494141 573.017029,592.301941 534.807617,605.153809 
	C496.254242,618.121460 457.366913,617.578125 418.499634,605.907410 
	C456.765869,627.829651 497.802063,636.075806 541.606506,630.920227 
	C585.772644,625.722046 624.155334,608.056030 656.126099,577.130371 
	C688.002441,546.296143 706.208557,508.551910 711.024292,464.274200 
	C713.131042,468.529541 711.587524,472.615387 711.086731,476.506714 
	C700.355896,559.880432 640.013062,626.984253 559.381165,646.479675 
	C472.991058,667.367493 383.458984,629.276855 338.878357,552.733276 
	C323.925262,527.059326 315.033997,499.336639 312.612427,469.630524 
	C311.798187,459.642181 311.762268,459.642670 321.908264,459.684662 
	C325.407532,459.699127 328.906769,459.728973 332.891113,459.759155 
z"/>
<path fill="#000000" opacity="1.000000" stroke="none" 
	d="
M495.331299,804.000122 
	C495.325806,815.991882 495.148895,827.487305 495.399445,838.973450 
	C495.497406,843.464417 493.414276,844.258606 489.637665,844.222351 
	C485.986847,844.187195 483.616547,843.639587 483.698547,839.079712 
	C483.910522,827.295166 483.769592,815.504272 482.718750,803.269348 
	C476.683777,812.433044 470.648804,821.596741 464.125671,831.501709 
	C456.690277,822.205872 451.757019,812.215637 444.090851,803.513672 
	C444.090851,808.391602 444.093719,813.269531 444.090149,818.147461 
	C444.085114,824.975891 443.905334,831.809814 444.127319,838.630737 
	C444.275208,843.174927 442.135132,844.243896 438.044952,844.260803 
	C433.969330,844.277588 432.507080,842.896179 432.549469,838.743530 
	C432.722931,821.757507 432.567078,804.768250 432.680939,787.781250 
	C432.695892,785.546448 431.378052,782.584656 434.772278,781.329285 
	C438.637390,779.899597 444.638824,781.183838 446.530884,784.054688 
	C451.112152,791.006226 455.571289,798.038269 460.100861,805.024048 
	C461.082489,806.537964 461.745667,808.328552 463.803894,809.379822 
	C467.569000,806.831116 469.125824,802.451355 471.662567,798.894531 
	C474.849091,794.426636 477.619995,789.663940 480.616638,785.058655 
	C482.968872,781.443665 489.470917,779.640808 493.406281,781.319458 
	C495.437042,782.185730 495.278564,783.883789 495.291382,785.513184 
	C495.338593,791.508545 495.322906,797.504456 495.331299,804.000122 
z"/>
<path fill="#000000" opacity="1.000000" stroke="none" 
	d="
M579.569336,809.415405 
	C573.596619,809.804810 571.381409,811.931519 571.288330,817.394531 
	C571.163635,824.716125 571.092285,832.044800 571.277405,839.363342 
	C571.385681,843.646240 569.063110,844.242249 565.596130,844.219116 
	C562.060242,844.195496 559.488953,843.879456 559.582458,839.205322 
	C559.805481,828.058044 559.628479,816.902954 559.648865,805.751160 
	C559.661255,799.006470 564.219238,796.078918 570.165955,799.489868 
	C572.199036,800.656006 573.261353,800.425293 574.936157,799.572632 
	C580.493286,796.743286 585.886475,796.904968 590.744751,801.053345 
	C592.487976,802.541748 593.783447,802.326111 595.606262,801.272827 
	C597.743164,800.037903 600.060181,798.950745 602.437378,798.323853 
	C612.965454,795.547546 621.788574,801.802490 622.240601,812.654785 
	C622.614258,821.627808 622.231384,830.629822 622.418579,839.614136 
	C622.503296,843.679565 620.286743,844.251099 617.041931,844.182739 
	C613.883606,844.116150 610.866089,844.210266 610.899170,839.731201 
	C610.952087,832.574585 610.924438,825.416870 610.870972,818.260071 
	C610.827698,812.472168 608.294128,809.318298 603.818848,809.329956 
	C599.667786,809.340759 597.100952,812.417786 596.975342,818.037659 
	C596.819153,825.024963 596.797791,832.020081 596.940063,839.007324 
	C597.028442,843.347168 594.787598,844.241089 590.993652,844.234253 
	C587.216736,844.227417 584.966248,843.412598 585.078247,839.013000 
	C585.268555,831.539246 585.222046,824.055969 585.102600,816.579468 
	C585.047668,813.144287 583.538330,810.479553 579.569336,809.415405 
z"/>
<path fill="#000000" opacity="1.000000" stroke="none" 
	d="
M236.611481,795.609253 
	C240.145996,792.055786 243.706345,788.980103 246.660629,785.403748 
	C252.032761,778.900452 258.685486,781.067322 265.127350,781.384583 
	C265.413239,781.838989 265.699097,782.293396 265.984955,782.747803 
	C256.217468,792.547546 246.449936,802.347290 236.005081,812.826599 
	C246.283447,822.789124 256.247711,832.447205 266.408752,842.296021 
	C260.331696,845.650024 251.832428,844.668396 247.825485,840.715332 
	C242.850922,835.807678 237.935532,830.839783 232.936066,825.957886 
	C231.805908,824.854187 230.966095,823.239441 228.710388,823.127380 
	C227.837448,828.386719 228.158417,833.677185 228.356216,838.898621 
	C228.538971,843.722839 226.042191,844.232422 222.172211,844.276489 
	C218.134674,844.322449 216.579453,842.977356 216.619614,838.788391 
	C216.787033,821.318970 216.826111,803.845154 216.590454,786.377258 
	C216.526367,781.626709 218.740860,780.921143 222.652832,780.887817 
	C226.553696,780.854675 228.558395,781.928650 228.343765,786.258484 
	C228.081009,791.558838 228.281158,796.882141 228.281158,803.103271 
	C231.880173,800.921509 233.936066,798.163574 236.611481,795.609253 
z"/>
<path fill="#000000" opacity="1.000000" stroke="none" 
	d="
M667.856689,841.055664 
	C656.794067,847.153748 645.489502,846.040466 637.617920,838.315247 
	C630.296326,831.129761 628.441406,819.892090 633.053589,810.661133 
	C638.129456,800.502014 649.394958,795.628296 660.946716,798.593933 
	C671.488037,801.300049 678.576050,810.968445 678.402100,821.882690 
	C678.336243,826.017639 676.699280,827.422363 672.678528,827.340637 
	C663.549500,827.155029 654.414185,827.282227 645.155273,827.282227 
	C646.564758,831.914429 651.682251,834.870789 656.621826,833.254089 
	C662.536194,831.318298 666.777771,834.305908 671.397644,836.322998 
	C671.478638,839.084167 669.470642,839.689270 667.856689,841.055664 
M663.615601,813.503479 
	C656.717407,807.326782 648.172302,808.031982 645.182129,815.024780 
	C647.801636,815.580078 661.067261,815.972534 662.963257,815.517273 
	C663.682129,815.344727 664.086182,814.878845 663.615601,813.503479 
z"/>
<path fill="#000000" opacity="1.000000" stroke="none" 
	d="
M355.741516,808.996704 
	C362.581268,798.597839 372.833893,795.229065 384.127686,799.486572 
	C386.067596,800.217896 387.455261,800.217285 389.583069,799.256042 
	C396.298096,796.222351 400.176025,799.044800 400.183838,806.373718 
	C400.194672,816.526001 400.192291,826.678345 400.171722,836.830627 
	C400.157867,843.668518 399.655975,843.914001 393.960938,844.248291 
	C388.124420,844.590759 388.584686,840.932800 388.629974,837.149597 
	C388.693695,831.824829 388.882080,826.483521 388.564545,821.176331 
	C388.107300,813.533752 382.016418,808.490845 374.762604,809.335205 
	C367.799622,810.145752 363.139374,816.585876 364.343964,823.732910 
	C365.359192,829.756348 370.898590,834.269470 377.439209,833.429199 
	C383.591034,832.638794 383.228577,837.536987 384.224762,840.667725 
	C385.432678,844.463867 381.557465,844.199951 379.416687,844.681030 
	C363.018860,848.365601 348.601471,831.846924 353.365906,814.882385 
	C353.901031,812.976807 354.828094,811.181213 355.741516,808.996704 
z"/>
<path fill="#000000" opacity="1.000000" stroke="none" 
	d="
M314.676392,818.379333 
	C316.474182,821.729858 317.210999,825.233643 319.938721,828.236267 
	C324.399628,821.009827 327.269806,813.408203 330.811676,806.151917 
	C334.852783,797.872559 335.988983,797.317383 345.533386,799.396057 
	C346.397675,801.177734 345.234222,802.585144 344.563293,804.033203 
	C337.639832,818.975586 330.752014,833.935181 323.708801,848.821106 
	C318.995056,858.783569 310.828186,862.879211 300.625946,860.714294 
	C299.607178,854.320007 301.359344,851.339600 307.171570,849.579895 
	C312.013580,848.113892 313.797607,844.295837 311.602783,839.488831 
	C306.213684,827.686096 300.689270,815.945190 295.243835,804.168030 
	C294.567383,802.705078 293.449402,801.324402 293.937500,799.549683 
	C302.885559,797.047668 305.047028,797.986633 308.741364,805.864319 
	C310.648438,809.930969 312.582489,813.984863 314.676392,818.379333 
z"/>
<path fill="#000000" opacity="1.000000" stroke="none" 
	d="
M547.033936,834.875244 
	C537.703247,846.901367 521.923035,848.489075 511.287445,838.757080 
	C501.175385,829.504089 501.118958,813.621521 511.164429,804.113403 
	C521.203491,794.611267 537.206604,795.773926 546.162048,806.656128 
	C552.584534,814.460388 552.979980,824.681091 547.033936,834.875244 
M515.425781,819.094299 
	C515.207092,826.618835 517.788025,830.949951 523.592224,832.798340 
	C528.935242,834.499878 534.826111,832.599976 537.672791,828.139709 
	C540.312561,824.003662 540.647522,819.578674 538.117310,815.379272 
	C535.526428,811.079102 531.505798,808.851013 526.354065,809.314331 
	C520.732483,809.819885 517.353760,813.147400 515.425781,819.094299 
z"/>
<path fill="#000000" opacity="1.000000" stroke="none" 
	d="
M729.332275,829.994385 
	C729.330383,832.823669 729.333435,835.155396 729.324951,837.487122 
	C729.301147,844.060303 728.708679,844.481934 722.183044,844.215637 
	C718.927063,844.082764 717.781433,842.623535 717.809509,839.569702 
	C717.869263,833.074890 717.894104,826.577454 717.775024,820.083984 
	C717.656677,813.632996 713.518677,809.244080 707.843384,809.298889 
	C701.840576,809.356873 698.257324,813.286255 698.141235,820.166992 
	C698.034546,826.494385 697.958557,832.828064 698.125305,839.152222 
	C698.244568,843.672913 695.687683,844.225586 692.049438,844.233704 
	C688.494263,844.241699 686.473999,843.516785 686.546082,839.278870 
	C686.750061,827.290710 686.711060,815.295105 686.536621,803.305908 
	C686.486633,799.870422 687.523804,798.228088 691.053101,798.700684 
	C696.699341,799.456848 702.141479,798.870422 707.834229,797.988831 
	C719.449585,796.190247 728.768433,805.015259 729.277161,817.006714 
	C729.453491,821.163391 729.322571,825.333069 729.332275,829.994385 
z"/>
<path fill="#000000" opacity="1.000000" stroke="none" 
	d="
M790.662231,810.334900 
	C789.600220,809.777283 788.882690,809.331726 788.104614,809.058838 
	C785.194519,808.038208 781.865417,807.945312 780.903748,811.126953 
	C780.030396,814.016296 783.470154,814.401489 785.573303,815.117310 
	C789.197998,816.350891 792.911743,817.374451 796.110840,819.575134 
	C800.624817,822.680420 803.799133,826.691101 802.914246,832.490845 
	C801.985046,838.581238 798.583679,842.767944 792.384094,844.461487 
	C785.449524,846.355835 779.202026,844.484436 773.263184,841.118408 
	C771.546448,840.145386 768.569275,838.684937 770.854492,836.318970 
	C772.929260,834.170715 774.212646,829.324341 778.925476,831.806702 
	C781.182007,832.995239 783.412231,834.028931 785.976196,833.997742 
	C787.781372,833.975708 789.970276,834.123352 790.479736,831.817932 
	C790.990295,829.507507 789.034546,828.668274 787.303528,828.020020 
	C784.505005,826.972107 781.565491,826.262878 778.844482,825.052979 
	C770.968933,821.551025 767.530884,815.842590 769.005920,809.127563 
	C770.635925,801.706909 776.255432,797.719177 784.938416,797.674561 
	C789.218872,797.652527 793.224487,798.638733 796.845459,800.833557 
	C798.807068,802.022583 801.873291,802.969910 800.274719,806.334351 
	C798.333801,810.419189 794.169678,812.180542 790.662231,810.334900 
z"/>
<path fill="#000000" opacity="1.000000" stroke="none" 
	d="
M749.897705,830.819153 
	C751.262146,832.330750 752.680298,832.558044 754.233337,832.660156 
	C759.101685,832.980530 762.172302,836.684814 761.972900,841.679260 
	C761.902222,843.449463 760.882874,843.922180 759.430725,844.090759 
	C745.491516,845.709290 736.999023,839.519775 737.008911,826.242615 
	C737.016602,815.915222 736.952087,805.587646 737.001648,795.260498 
	C737.023499,790.712891 742.628662,786.689026 746.961121,787.926697 
	C748.619324,788.400452 748.808777,789.737732 748.872070,791.049622 
	C748.992310,793.543152 749.018188,796.046143 748.959961,798.542236 
	C748.892578,801.428284 749.464050,803.192139 752.816284,804.394409 
	C757.344421,806.018311 755.948059,811.022705 757.144348,814.420227 
	C756.558472,814.894714 756.323547,815.250244 756.052490,815.280334 
	C748.959351,816.067627 748.942322,816.061951 748.973450,823.567444 
	C748.983093,825.888245 748.766785,828.242371 749.897705,830.819153 
z"/>
<path fill="#000000" opacity="1.000000" stroke="none" 
	d="
M275.212402,799.502686 
	C275.636353,799.117065 275.787598,799.022644 275.947906,799.003174 
	C285.916016,797.796631 286.190033,798.032471 286.182251,807.835144 
	C286.174042,818.155029 286.013031,828.477844 286.219635,838.793396 
	C286.313873,843.498840 283.930603,844.198242 280.003052,844.263611 
	C275.885071,844.332153 274.465088,842.869080 274.560059,838.734924 
	C274.857788,825.770142 274.839661,812.798035 275.212402,799.502686 
z"/>
<path fill="#000000" opacity="1.000000" stroke="none" 
	d="
M283.513916,792.638672 
	C282.267578,792.786621 281.438049,792.937500 280.625793,792.872437 
	C278.593506,792.709534 275.758453,793.756653 274.937653,791.233887 
	C274.040741,788.477234 273.766998,785.054443 275.181335,782.555542 
	C276.786438,779.719666 280.246277,781.099731 282.933868,781.096619 
	C285.154205,781.094116 286.276825,782.646973 286.070465,784.703735 
	C285.799713,787.402649 287.703979,790.779602 283.513916,792.638672 
z"/>
</svg>